<svg width="142" height="373" viewBox="0 0 142 373" fill="none" xmlns="http://www.w3.org/2000/svg">
<path d="M62.5 124.1C61.9 134.4 61.4 144.6 61 154.9C60.7 165.2 60.4 175.5 60.7 185.7C60.8 190.8 61.1 195.9 61.4 201C61.6 206.1 61.9 211.2 62.3 216.4C63 226.6 63.7 236.9 64.2 247.1C64.5 252.2 64.7 257.4 64.8 262.5C65 267.6 64.9 272.9 64.7 278L64 308.9L62.6 370.6C62.6 371.6 61.9 372.4 61.1 372.4C60.3 372.4 59.7 371.5 59.7 370.5L61.7 308.8L62.7 277.9C63.2 267.6 62.9 257.4 62.4 247.2C61.9 237 61.3 226.7 60.7 216.5C60.4 211.4 60 206.3 59.7 201.1C59.4 196 59.1 190.8 59.1 185.7C58.9 175.4 59.2 165.1 59.7 154.8C60.1 144.5 60.7 134.2 61.5 124C61.5 123.7 61.7 123.5 62 123.5C62.4 123.5 62.6 123.8 62.5 124.1Z" fill="#B4D462"/>
<path d="M141.1 153.2C137.5 155 134 157.2 130.3 159.1C129.4 159.6 128.4 160 127.4 160.4C126.3 160.8 125.3 161 124.3 161.3C122.4 161.8 120.5 162.4 118.6 163.1C114.8 164.4 111.2 165.9 107.6 167C105.8 167.6 104.1 168 102.3 168.5C100.6 169.1 98.9 169.6 97.4 170.3C96.6 170.6 95.9001 171 95.1001 171.3C94.8001 171.5 94.3001 171.7 94.1001 171.9L93.7001 172.1L93.2001 172.4C91.9001 173.2 90.5001 174.4 89.1001 175.7C86.2001 178.2 83.3 181.2 80.4 184.3C74.6 190.6 68.8001 197 61.6001 202.3C61.4001 202.5 61.1 202.4 61 202.1C60.9 202 60.9 201.8 61 201.6C61.6 199 62.4 196.6 63.3 194.2C64.2 191.8 65.1001 189.6 66.2001 187.3C68.3001 182.9 70.7 178.7 73.3 174.8C75.9 170.8 78.7 166.9 81.9 163.3C83.5 161.5 85.3 159.8 87.4 158.2C87.7 158 87.9001 157.8 88.2001 157.6L89.1001 157C89.7001 156.6 90.2 156.4 90.8 156.1C91.9 155.6 93 155.1 94 154.7C96.1 154 98.2 153.4 100.3 153.1C102.4 152.7 104.4 152.5 106.5 152.5C110.6 152.4 114.6 153.3 118.5 154.3C120.4 154.8 122.4 155.3 124.3 155.6C125.3 155.8 126.2 155.9 127 155.9C127.9 155.9 128.8 155.8 129.7 155.6C133.4 155 137.2 153.7 140.8 151.9C141 151.8 141.3 151.9 141.4 152.2C141.4 152.8 141.3 153.1 141.1 153.2Z" fill="#B4D462"/>
<path d="M0.900085 149.4C2.60009 148.3 4.50009 148.1 6.30009 148.4C7.20009 148.6 8.10009 148.9 8.90009 149.3C9.70009 149.7 10.6001 150.1 11.4001 150.6C14.6001 152.5 17.8001 154.6 20.8001 157.1C22.3001 158.4 23.8001 159.7 25.2001 161.3C25.9001 162.1 26.6001 162.9 27.3001 163.8L28.3001 165.1L29.2001 166.4C31.6001 169.8 34.1001 172.9 36.7001 176L40.5001 180.6C41.7001 182.1 42.9001 183.7 44.1001 185.3C45.2001 186.9 46.3001 188.5 47.4001 190.2L48.9001 192.7L50.3001 195.1C52.2001 198.3 54.2001 201.7 56.2001 205.3C57.2001 207.1 58.2001 209 59.1001 211C60.1001 213 61.0001 215.1 61.9001 217.4C62.0001 217.7 61.9001 218.1 61.7001 218.3C61.6001 218.3 61.5001 218.4 61.5001 218.4C59.4001 218.3 57.6001 217.9 55.7001 217.2C53.9001 216.6 52.1001 215.7 50.4001 214.7C47.0001 212.7 43.8001 210.1 40.9001 206.8C40.2001 206 39.5001 205.1 38.8001 204.2C38.2001 203.3 37.6001 202.5 37.0001 201.6C35.8001 199.8 34.7001 197.9 33.8001 196C31.8001 192.1 30.3001 187.9 28.8001 183.7C27.3001 179.5 25.8001 175.3 24.1001 171.5L23.5001 170.1L22.9001 168.8C22.5001 168 22.0001 167.1 21.5001 166.3C20.5001 164.6 19.4001 163 18.2001 161.5C15.8001 158.4 13.2001 155.6 10.4001 153.1C9.00009 151.9 7.60009 150.6 6.00009 150C4.50009 149.4 2.60009 149.5 1.20009 150.5C1.00009 150.6 0.700098 150.5 0.600098 150.3C0.600098 149.9 0.700085 149.6 0.900085 149.4Z" fill="#B4D462"/>
<path d="M59.7001 186.2C58.8001 182.6 57.4 179.3 55.8 176.2C55 174.6 54.1001 173.1 53.1001 171.7C52.1001 170.3 51 169 49.9 167.8C48.8 166.6 47.8 165.3 46.8 164.1C46.3 163.5 45.9001 162.8 45.5001 162.2C45.1001 161.6 44.7 161 44.3 160.4C42.7 158 40.9001 155.5 39.0001 152.9C37.1001 150.3 35.2001 147.6 33.2001 144.9C31.2001 142.2 29.1 139.5 26.9 136.6C26.6 136.2 26.4001 135.9 26.1001 135.5C25.8001 135.1 25.6001 134.8 25.3001 134.3L24.9 133.6C24.8 133.4 24.6001 133.1 24.6001 133C24.4001 132.6 24.2001 132.3 24.0001 131.9C23.2001 130.4 22.3 128.9 21.4 127.5C19.6 124.6 17.7 121.8 15.7 119C15.5 118.8 15.5 118.4 15.7 118.2C15.9 118 16.1 118 16.2 118.1C18.6 120.3 20.9 122.6 23.2 125C24.3 126.2 25.5001 127.5 26.6001 128.8C26.9001 129.1 27.1 129.5 27.4 129.8C27.5 130 27.7001 130.1 27.8001 130.2L28.1001 130.6C28.3001 130.8 28.6 131.1 28.9 131.3C29.2 131.5 29.4001 131.8 29.7001 132C34.4001 135.8 40.1001 138.7 45.1001 143.2C47.6001 145.5 50.0001 148.2 52.1001 151.5C54.3001 154.9 55.5001 158.7 56.2001 162.8C56.9001 166.9 57.3001 170.9 58.0001 174.7C58.7001 178.5 59.4001 182.2 60.2001 185.9C60.3001 186.2 60.1 186.5 59.9 186.6C60 186.6 59.8001 186.5 59.7001 186.2Z" fill="#B4D462"/>
<path d="M59.6 169.9C60.9 165.1 62 160.2 63.2 155.3L64.9 147.9C65.5 145.4 66.1 142.9 66.6 140.4C67.7 135.3 68.4 129.7 70.3 124.5C70.5 123.9 70.7 123.2 71 122.6C71.3 122 71.6 121.3 71.9 120.7C72.5 119.5 73.1 118.3 73.9 117.1C74.3 116.5 74.7 116 75.1 115.4C75.5 114.8 75.9 114.3 76.4 113.8C76.9 113.3 77.4 112.7 77.8 112.2C78.3 111.7 78.8 111.1 79.2 110.8C82.6 107.8 86.5 105.3 90.8 103.6C95 101.9 99.8 101 104.1 101.4C105.2 101.5 106.2 101.6 107.2 101.8C107.7 101.9 108.2 102 108.7 102.1L110.2 102.5C112.2 103.1 114.1 103.8 116 104.6C119.7 106.3 123.3 108.1 126.9 110.1C127.1 110.2 127.2 110.5 127.1 110.8C127 111.1 126.8 111.2 126.6 111.1C122.9 109.7 119.1 108.7 115.3 108.1C113.4 107.9 111.5 107.7 109.7 107.8L108.4 107.9C107.9 108 107.5 108 107 108.1C106.1 108.3 105.2 108.5 104.3 108.8C100.9 109.9 98.1 112.5 95.5 115.6C92.9 118.7 90.4 122.1 87.7 125.3C87.3 125.7 87.1 126 86.9 126.4C86.7 126.7 86.4 127.1 86.2 127.4C85.9 127.7 85.7 128.1 85.4 128.4C85.1 128.8 84.9 129.1 84.6 129.5C84 130.2 83.5 131 82.9 131.8C82.6 132.2 82.3 132.5 81.9 132.9C81.6 133.3 81.3 133.7 80.9 134.1C80.2 134.9 79.5 135.6 78.8 136.5C78.1 137.3 77.4 138.1 76.6 138.9C75.2 140.6 73.7 142.3 72.4 144.2C71.1 146.1 69.9 148.1 68.8 150.2L67.2 153.4C66.7 154.5 66.2 155.6 65.7 156.6C63.7 161 61.8 165.4 60.4 170.1C60.3 170.4 60.1 170.5 59.8 170.4C59.6 170.4 59.5 170.1 59.6 169.9Z" fill="#B4D462"/>
<path d="M61.3 127.5C61.5 123.3 61.7001 119.2 62.0001 115C62.2001 110.8 62.3 106.4 62.8 102C63.3 97.6999 64.5001 93.4999 66.2001 89.6999C68.0001 85.4999 70.3 81.7999 72.8 78.6999C77.9 72.3999 83.8001 68.2999 89.5001 64.5999L91.6001 63.1999L92.6001 62.4999C92.9001 62.2999 93.1001 62.0999 93.4001 61.8999C94.6001 60.5999 95.9001 59.3999 97.1001 58.0999C99.5001 55.4999 102 52.8999 104.4 50.1999C104.6 49.9999 104.9 49.9999 105 50.2999C105.1 50.4999 105.1 50.7999 105 50.9999C103 54.1999 101.1 57.4999 99.1001 60.7999C98.1001 62.3999 97.2001 64.0999 96.2001 65.7999C95.9001 66.1999 95.5001 66.7999 95.2001 67.0999C94.9001 67.4999 94.6 67.8999 94.3 68.2999L92.5001 70.4999C87.8001 76.0999 83.6001 81.7999 80.2001 87.5999C78.5001 90.4999 77 93.4999 75.8 96.4999C74.6 99.8999 73.2001 103.2 71.4001 106.5C69.6001 109.8 67.6001 113.1 66.1001 116.7C65.3001 118.5 64.6001 120.3 64.0001 122.2C63.3001 124.1 62.7001 126 62.2001 127.9C62.1001 128.2 61.9001 128.3 61.6001 128.2C61.4001 127.9 61.3 127.7 61.3 127.5Z" fill="#B4D462"/>
<path d="M60.2 148.5C56.9 145.2 54 141.5 51.3 137.6C48.6 133.6 46.1 129.3 44.1 124.4C43.6 123.2 43.1 121.9 42.7 120.6C42.3 119.3 41.9 117.9 41.5 116.5C41.1 115.1 40.9 113.7 40.6 112.2L40.3 109.9C40.2 109.2 40.2 108.4 40.1 107.7C39.8 101.8 40.3 96.4998 41 91.2998C41.7 86.0998 42.4 80.9998 42.9 75.8998C43.4 70.7998 43.4 65.7998 43.2 60.6998C43.1 58.0998 42.9 55.5998 42.7 52.9998C42.5 50.3998 42.3 47.8998 42 45.2998C41.5 40.1998 40.9 35.0998 40 30.0998C40 29.7998 40.1 29.4998 40.3 29.3998C40.5 29.2998 40.7 29.4998 40.8 29.7998C43 39.7998 44.9 49.7998 46.4 60.0998C47.2 65.2998 47.6 70.5998 47.9 75.8998L49 91.5998L49.5 99.1998C49.6 101.7 49.8 104 50 106.3C50.4 110.5 51.3 114.8 52.5 119.3C53.7 123.7 55.3 128.3 56.7 133.1C58.2 137.9 59.7 142.8 60.6 148.1C60.7 148.4 60.5 148.7 60.3 148.8C60.5 148.6 60.3 148.6 60.2 148.5Z" fill="#B4D462"/>
<path d="M63.4001 260.9C61.6001 260 59.9001 259.3 58.2001 258.6C56.5001 257.9 54.9001 257.2 53.3001 256.7C51.6001 256.2 49.9001 255.8 48.3001 255.3C46.7001 254.8 45.3001 254 43.9001 253C43.2001 252.5 42.5001 252 41.8001 251.5C41.1001 251 40.4001 250.5 39.7001 249.9L38.5001 249L37.3001 248C36.5001 247.3 35.7001 246.6 35.0001 245.7C32.0001 242.5 29.3001 238.9 26.9001 235.1C25.7001 233.2 24.5001 231.4 23.4001 229.5C22.8001 228.6 22.2001 227.6 21.6001 226.8L19.8001 224.1C19.2001 223.2 18.7001 222.2 18.2001 221.2C17.7001 220.2 17.3001 219.1 16.9001 218.1C16.1001 216 15.4001 213.8 14.8001 211.5C14.2001 209.2 13.8001 207.2 13.1001 205.1C12.5001 203 11.7001 201 10.9001 199C9.3001 195 7.60011 191.1 5.60011 187.5C5.50011 187.3 5.5001 186.9 5.7001 186.7C5.9001 186.5 6.20011 186.6 6.30011 186.8C8.30011 190.5 10.4001 194 12.6001 197.5C13.7001 199.2 14.8001 201 15.9001 202.7L19.3001 208L22.6001 212.9C23.7001 214.5 24.8001 216.1 25.7001 217.8C26.2001 218.6 26.7001 219.5 27.2001 220.3C27.7001 221.1 28.3001 221.9 28.9001 222.5C29.5001 223.2 30.1001 223.8 30.8001 224.4C31.5001 225 32.1001 225.6 32.8001 226.1C35.5001 228.3 38.6001 229.7 41.5001 231C41.9001 231.2 42.2001 231.3 42.6001 231.5L43.7001 231.9L44.8001 232.4L46.0001 232.9C46.9001 233.3 47.7001 233.8 48.6001 234.2C49.5001 234.7 50.3001 235.2 51.1001 235.8C52.8001 236.9 54.3001 238.3 55.6001 240.2C56.9001 242 58.1001 244.2 59.2001 246.3C60.3001 248.4 61.4001 250.5 62.3001 252.8C63.2001 255.1 63.9001 257.5 64.2001 260.3C64.2001 260.6 64.0001 261 63.8001 261C63.6001 261 63.5001 261 63.4001 260.9Z" fill="#B4D462"/>
<path d="M63.6 250.9C63.8 248.5 64.2 246.2 64.7 243.9C65 242.8 65.3 241.7 65.6 240.6C65.9 239.5 66.3 238.4 66.6 237.4C68.1 233.2 69.6 228.7 71.6 224.4C72.1 223.3 72.7 222.3 73.3 221.2C73.9 220.2 74.6 219.2 75.3 218.2C75.7 217.7 76.1 217.3 76.4 216.8C76.8 216.3 77.2 215.8 77.4 215.6C77.8 215 78.4 214.4 78.8 213.8L80.2 212.1C80.7 211.6 81.2 211 81.7 210.4C82.7 209.2 83.7 208.1 84.7 206.7C86.8 204.1 89.2 201 92.2 197.8C93.7 196.2 95.3 194.7 97.1 193.3C99 191.7 101 190.6 102.8 189.9C104.6 189.1 106.4 188.5 108.1 188.1C109.9 187.6 111.7 187.7 113.5 187.7C114.4 187.7 115.2 187.6 116.1 187.4C116.9 187.3 117.8 187.1 118.6 186.9C120.3 186.5 121.9 186.2 123.5 185.5C123.7 185.4 124 185.6 124 185.9C124.1 186.2 123.9 186.5 123.7 186.6C123.7 186.6 123.7 186.6 123.6 186.6C122 186.9 120.4 187.6 118.8 188.3C117.3 189.1 115.7 190 114.3 191.3C112.9 192.6 111.6 194.2 110.3 195.4C109 196.6 107.7 197.8 106.6 199.2C105.5 200.6 104.7 201.9 104.1 203.3C103.4 204.9 102.8 206.6 102.2 208.4C101 212 99.7 216.1 97.6 220.3C95.5 224.4 92.8 228.6 89.4 231.7C88.6 232.5 87.7 233.2 86.8 233.8C86.3 234.2 86.1 234.3 85.8 234.5C85.5 234.7 85.2 234.8 84.9 235C84.3 235.4 83.7 235.7 83 236.1C82.3 236.5 81.7 236.9 81 237.3C78.2 239 75.3 241.1 72.7 243.6C70 246.2 67.4 248.8 64.2 251.4C64 251.6 63.7 251.5 63.5 251.2C63.7 251.2 63.6 251 63.6 250.9Z" fill="#B4D462"/>
<path d="M62.8001 293.8C59.2001 294.8 55.7001 295 51.9001 295.3C48.2001 295.6 44.1001 295.9 40.2001 294.7C39.2001 294.4 38.2001 294 37.3001 293.5C36.4001 293 35.3001 292.4 34.5001 291.7C33.6001 291 32.8001 290.3 32.0001 289.5C31.2001 288.7 30.5001 287.9 29.8001 287C26.9001 283.6 24.5001 279.8 22.5001 275.9C18.3001 268.1 15.7001 259.4 12.8001 251.6C9.80008 243.6 6.30007 236 2.90007 228.3C2.80007 228 2.90008 227.7 3.10008 227.5C3.30008 227.4 3.50008 227.4 3.60008 227.6C8.60008 233.7 13.4001 239.9 18.5001 246.1L25.9001 255.4C28.3001 258.4 30.7001 261.3 33.0001 264.1C35.3001 266.9 37.6001 269.5 39.8001 271.8C40.4001 272.4 40.9001 273 41.5001 273.5C42.1001 274.1 42.6001 274.6 43.1001 275.1C44.1001 276.2 45.1001 277.3 46.2001 278.6C48.3001 281.2 50.8001 284.3 53.6001 286.7C55.0001 287.9 56.5001 288.9 58.1001 289.8C59.6001 290.7 61.2001 291.7 62.8001 292.5C63.0001 292.6 63.1001 293 63.0001 293.3C63.1001 293.6 62.9001 293.8 62.8001 293.8Z" fill="#B4D462"/>
<path d="M63.4002 284.8C65.0002 280.3 66.9002 276.6 69.0002 273C71.1002 269.4 73.4002 266.2 75.9002 263.1C78.4002 260.1 81.0002 257.3 83.9002 254.7C86.9002 252 89.9002 250 93.0002 248.3C99.2002 244.9 105.9 243.2 112.4 241C115.6 239.9 118.8 238.6 121.9 237L126.6 234.8C127.4 234.4 128.2 234.1 129 233.7C129.4 233.5 129.8 233.4 130.2 233.2C130.4 233.1 130.6 233.1 130.8 233C130.9 233 131 232.9 131.1 232.9C131.2 232.9 131.3 232.9 131.5 232.9C131.7 232.9 131.9 233.2 131.9 233.5C131.9 233.8 131.6 234 131.4 234C131.4 234 131.3 234 131.2 234C131.1 234 131 234 130.9 234.1C130.7 234.2 130.5 234.2 130.3 234.3C129.9 234.5 129.6 234.7 129.2 234.9C128.5 235.4 127.8 235.9 127.1 236.4C125.7 237.5 124.4 238.8 123.1 240.1C120.5 242.8 117.8 245.5 115.2 248.4C110 254.1 105 260.2 99.6002 265C96.9002 267.4 94.1002 269.5 91.6002 271.4C88.9002 273.4 86.1002 275.4 83.2002 277.3C80.3002 279.2 77.2002 280.9 74.0002 282.3C70.8002 283.7 67.5002 285.1 63.7002 285.7C63.4002 285.8 63.2002 285.5 63.2002 285.2C63.4002 285 63.4002 284.9 63.4002 284.8Z" fill="#B4D462"/>
<path d="M69.0002 1.2999C68.3002 6.5999 68.1002 11.9999 67.9002 17.4999C67.7002 22.8999 67.7002 28.3999 67.5002 33.7999C67.4002 39.2999 67.2002 44.6999 66.8002 50.2999C66.6002 53.0999 66.4002 55.6999 66.3002 58.2999C66.2002 60.8999 66.1002 63.3999 65.8002 65.8999C65.5002 68.3999 65.1002 70.7999 64.7002 73.3999C64.3002 75.8999 63.9002 78.5999 63.5002 81.2999C63.2002 83.9999 62.9002 86.7999 62.9002 89.4999C62.8002 92.1999 62.8002 94.9999 62.7002 97.6999C62.4002 108.5 62.0002 119.3 62.1002 130.1C62.1002 130.4 61.9002 130.7 61.7002 130.7C61.5002 130.7 61.3002 130.5 61.3002 130.2C61.5002 119.4 61.1002 108.6 60.4002 97.8999C60.2002 95.1999 60.0002 92.5999 59.7002 89.8999C59.4002 87.1999 58.9002 84.5999 58.3002 81.9999C57.7002 79.2999 57.0002 76.5999 56.6002 73.7999C56.2002 70.9999 56.0002 67.9999 56.1002 65.0999C56.2002 62.1999 56.6002 59.3999 57.2002 56.5999C57.8002 53.8999 58.5002 51.0999 59.1002 48.5999C60.3002 43.4999 61.6002 38.2999 62.7002 33.0999C63.9002 27.8999 65.0002 22.5999 66.0002 17.3999C67.0002 12.0999 67.9002 6.7999 68.2002 1.3999C68.2002 1.0999 68.4002 0.899902 68.7002 0.899902C69.0002 0.899902 69.0002 0.999904 69.0002 1.2999Z" fill="#B4D462"/>
<path d="M141 152.8C137.4 154.6 133.8 156.4 130.1 157.7C129.2 158 128.2 158.3 127.3 158.5C126.3 158.7 125.4 158.8 124.4 158.9L118.7 159.3C114.9 159.6 111.1 160.1 107.3 160.7C103.5 161.4 99.8003 162.2 96.2003 163.6C94.4003 164.3 92.6002 165.1 91.0002 166.3C89.4002 167.5 87.8002 168.9 86.3002 170.4C83.3002 173.4 80.4003 176.8 77.6003 180.2C74.8003 183.7 72.1002 187.3 69.5002 190.9C66.8002 194.5 64.2003 198.2 61.6003 202H61.5002V201.9C66.1002 193.7 71.1003 186.1 76.6003 178.8C79.3003 175.2 82.2003 171.7 85.2003 168.5C86.7003 166.9 88.3003 165.4 90.1003 164.2C91.9003 162.9 93.8003 162 95.6003 161.3C103.2 158.5 111 158 118.6 158H124.4C125.4 158 126.3 158 127.2 157.8C128.1 157.6 129.1 157.4 130 157.1C133.7 155.9 137.4 154.3 141 152.5H141.1C141 152.7 141 152.8 141 152.8Z" fill="#AD1883"/>
<path d="M1.10016 149.8C2.70016 148.8 4.50015 148.6 6.20015 149C7.90015 149.5 9.50015 150.6 11.0002 151.6C14.1002 153.7 17.0001 156.2 19.7001 159C22.4001 161.7 25.0002 164.9 27.0002 168.6L33.3001 179.4C35.4001 183 37.5002 186.5 39.7002 190C41.8002 193.5 44.0001 197 46.3001 200.2C48.6001 203.4 51.1002 206.5 53.7002 209.4C56.3002 212.3 59.0002 215.1 61.7002 217.8V217.9C61.7002 217.9 61.7002 217.9 61.6002 217.9C58.6002 215.7 55.7001 213.3 52.9001 210.5C50.1001 207.8 47.5002 204.8 45.0002 201.6C44.4002 200.8 43.8002 199.9 43.2002 199.1C42.6002 198.2 42.1002 197.4 41.5002 196.5C40.4002 194.8 39.3002 193 38.2002 191.2C36.1002 187.6 34.1002 183.9 32.1002 180.2C28.1002 172.9 24.7001 164.9 19.2001 159.4C16.5001 156.6 13.7001 154 10.7001 151.8C9.20015 150.7 7.70015 149.6 6.00015 149.1C4.30015 148.6 2.50015 148.8 0.900146 149.8C1.10015 150 1.10016 150 1.10016 149.8C1.10016 149.9 1.10016 149.9 1.10016 149.8Z" fill="#AD1883"/>
<path d="M60.0002 186C58.2002 178.8 55.8002 171.9 52.6002 165.6C51.8002 164 51.0002 162.5 50.2002 161C49.4002 159.5 48.5002 158 47.6002 156.6C45.8002 153.8 43.7002 151.2 41.6002 148.8C39.4002 146.3 37.2001 144 34.9001 141.7C32.6001 139.4 30.3002 137.2 28.1002 134.7C27.5002 134.1 27.0002 133.4 26.5002 132.7C26.0002 132 25.6002 131.2 25.1002 130.5C24.2002 129.1 23.2001 127.7 22.2001 126.3C20.2001 123.6 18.1001 121 15.9001 118.5V118.4H16.0002C18.2002 120.8 20.4002 123.3 22.5002 125.9C23.5002 127.2 24.6002 128.6 25.5002 130C26.0002 130.7 26.4001 131.5 26.9001 132.1C27.4001 132.7 27.9002 133.4 28.5002 133.9C30.7002 136.2 33.2002 138.3 35.5002 140.5C37.9002 142.6 40.2002 144.9 42.5002 147.3C44.8002 149.7 46.9001 152.3 48.8001 155.3C50.7001 158.3 52.2002 161.6 53.5002 165C54.8002 168.4 56.0002 171.9 57.0002 175.4C58.1002 178.9 59.0001 182.5 59.9001 186.1C60.2001 186 60.1002 186.1 60.0002 186C60.0002 186.1 60.1002 186.1 60.0002 186Z" fill="#AD1883"/>
<path d="M59.9001 170C62.6001 160.5 65.6002 151.1 69.2002 142C70.1002 139.7 71.0001 137.5 71.9001 135.2C72.9001 133 73.9002 130.8 75.0002 128.7C77.2002 124.5 79.8002 120.4 83.0002 117.2C86.1002 114.1 89.4001 111.2 92.9001 108.9C96.4001 106.6 100.3 104.9 104.2 104.7C106.2 104.6 108.1 104.6 110 104.8C111.9 105.1 113.8 105.5 115.7 106.1C119.5 107.3 123.1 108.8 126.8 110.5C126.8 110.5 126.8 110.5 126.8 110.6C126.8 110.6 126.8 110.7 126.7 110.6C123.1 108.9 119.4 107.6 115.6 106.5C113.7 106 111.8 105.6 109.9 105.4C108 105.2 106.1 105.3 104.2 105.5C102.3 105.8 100.4 106.3 98.6002 107.1C96.8002 107.9 95.1001 109 93.4001 110.2C90.1001 112.7 87.0001 115.7 83.9001 118.8C80.9001 121.9 78.5002 125.7 76.2002 129.7C73.9002 133.7 71.8001 138 69.8001 142.4C67.8001 146.8 66.1002 151.3 64.5002 155.9C62.9002 160.7 61.4001 165.3 59.9001 170C60.0001 170.1 60.0001 170.1 59.9001 170C59.9001 170.1 59.9001 170.1 59.9001 170Z" fill="#AD1883"/>
<path d="M61.7002 127.5C62.2002 123.5 63.0002 119.5 63.8002 115.5C64.6002 111.5 65.5002 107.6 66.5002 103.7C67.5002 99.7999 68.8002 95.9999 70.3002 92.3999C71.8002 88.6999 73.8002 85.2999 76.0002 82.2999C80.4002 76.1999 85.6002 71.3999 90.9002 66.8999C92.2002 65.7999 93.5002 64.6999 94.7002 63.3999L98.1002 59.0999L104.8 50.3999H104.9V50.4999L98.4002 59.4999L95.2002 63.9999C94.0002 65.4999 92.7002 66.5999 91.4002 67.7999C86.3002 72.5999 81.3002 77.5999 77.2002 83.5999C75.1002 86.5999 73.3002 89.7999 71.9002 93.3999C70.5002 96.9999 69.2002 100.7 67.9002 104.4C65.4002 111.8 63.3002 119.6 61.9002 127.5C61.8002 127.6 61.7002 127.6 61.7002 127.5C61.6002 127.6 61.7002 127.6 61.7002 127.5Z" fill="#AD1883"/>
<path d="M60.5002 148.2C58.2002 144 55.9002 139.9 53.7002 135.6C52.6002 133.5 51.5002 131.3 50.5002 129.1C49.5002 126.9 48.5002 124.6 47.7002 122.2C46.0002 117.5 44.7001 112.4 44.3001 107.1C43.9001 101.8 44.2001 96.5999 44.4001 91.3999C44.7001 86.1999 45.0002 81.0999 45.1002 75.8999C45.2002 73.2999 45.2002 70.6999 45.1002 68.1999C45.0002 65.5999 44.9002 63.0999 44.6002 60.4999C43.6002 50.2999 42.3001 40.0999 40.4001 29.9999C40.4001 29.9999 40.4002 29.8999 40.5002 29.8999C40.5002 29.8999 40.6002 29.8999 40.6002 29.9999C42.6002 39.9999 44.1002 50.1999 45.2002 60.3999C46.4002 70.6999 45.9001 81.1999 45.8001 91.4999C45.7001 96.6999 45.7002 101.8 46.0002 106.9C46.2002 109.4 46.6002 111.8 47.1002 114.3C47.6002 116.7 48.3002 119.1 49.1002 121.4C52.3002 130.7 56.7002 139.3 60.6002 148.3C60.7002 148.2 60.7002 148.2 60.5002 148.2C60.6002 148.3 60.6002 148.3 60.5002 148.2Z" fill="#AD1883"/>
<path d="M63.7003 260.6C61.4003 257.2 58.7002 254.5 55.9002 252C53.1002 249.5 50.1003 247.4 47.1003 245.3L44.8002 243.7L42.5002 242.2C41.7002 241.7 40.9003 241.2 40.2003 240.7L39.0002 239.9L37.9002 239C34.9002 236.7 32.1002 234 29.5002 231C26.9002 228 24.6002 224.7 22.4002 221.2C20.2002 217.7 18.4002 213.8 16.8002 209.9C15.2002 205.9 13.5002 202 11.7002 198.3C9.80024 194.5 7.90024 190.8 6.00024 187.2V187.1H6.10025C8.10025 190.8 10.1002 194.4 12.0002 198.1C13.0002 200 13.9002 201.8 14.8002 203.7C15.7002 205.6 16.6002 207.6 17.4002 209.5C20.9002 217.1 25.0002 224.4 30.3002 230C32.9002 232.9 35.8003 235.3 38.7003 237.4L39.8002 238.2L40.9002 238.9L43.2003 240.3L45.5002 241.8L47.8002 243.3C50.9002 245.4 53.8002 248 56.5002 250.8C57.8002 252.2 59.2002 253.7 60.4002 255.3C61.7002 257 62.9003 258.7 63.7003 260.6C63.8003 260.6 63.8003 260.6 63.7003 260.6C63.7003 260.7 63.8003 260.7 63.7003 260.6Z" fill="#AD1883"/>
<path d="M64.0002 251.1C64.8002 249.2 65.7003 247.3 66.6003 245.5C67.5003 243.7 68.5002 241.9 69.5002 240.1C71.5002 236.6 73.7002 233.2 76.0002 230.1C76.6002 229.3 77.2002 228.6 77.8002 227.8C78.4002 227.1 79.1003 226.4 79.7003 225.7C80.4003 225 81.1003 224.3 81.7003 223.7C82.4003 223.1 83.0003 222.5 83.7003 221.8L84.7003 220.8L85.6003 219.7C86.2003 219 86.8002 218.3 87.4002 217.5C88.5002 216 89.6003 214.4 90.7003 212.7C92.8003 209.4 94.7002 205.8 96.9002 202.5C98.0002 200.8 99.1002 199.2 100.4 197.7C101.7 196.2 103.1 195 104.6 194C107.6 191.9 110.7 190.5 113.9 189.2C117.1 187.9 120.3 186.8 123.5 185.9V186C117 187.9 110.7 190.7 104.9 194.9C103.5 196 102.1 197.2 101 198.7C99.8002 200.2 98.8002 201.8 97.8002 203.5C95.8002 206.9 94.0002 210.6 91.9002 214C89.8002 217.4 87.5002 220.7 84.8002 223.4C84.1002 224.1 83.4003 224.7 82.7003 225.4L80.7003 227.2C80.0003 227.8 79.4002 228.5 78.8002 229.2L76.9002 231.3C72.0002 237.3 67.8002 244.1 64.0002 251.1C64.0002 251.2 64.0002 251.2 64.0002 251.1C64.0002 251.2 64.0002 251.2 64.0002 251.1Z" fill="#AD1883"/>
<path d="M62.8 293.3C59.4 293.1 56.0001 292.4 52.7001 291.5C49.4001 290.6 46 289.4 42.9 287.6C41.3 286.7 39.8 285.6 38.4 284.3C37 283.1 35.6 281.7 34.3 280.2C31.7 277.3 29.4 274 27.2 270.6C25 267.2 23.0001 263.6 21.1001 260C19.2001 256.4 17.3 252.7 15.4 249.1C11.5 241.9 7.40005 234.9 3.30005 227.9V227.8C3.30005 227.8 3.30004 227.8 3.40004 227.8C7.70004 234.6 11.9001 241.4 16.1001 248.4C20.2001 255.4 24 262.7 28.5 269.2C32.9 275.8 37.8001 281.8 43.7001 285.7C49.6001 289.6 56.3 291.9 63 293C62.9 293.2 62.9 293.2 62.8 293.3C62.9 293.3 62.9 293.3 62.8 293.3Z" fill="#AD1883"/>
<path d="M63.6001 285.2C68.7001 279.7 73.9001 274.4 79.2001 269.4C81.9001 266.9 84.6001 264.4 87.4001 262.1C88.8001 260.9 90.2001 259.8 91.7001 258.8C93.1001 257.7 94.6001 256.7 96.1001 255.7C101.9 251.7 107.9 248 113.8 244.3C116.7 242.4 119.7 240.5 122.6 238.4C124.1 237.4 125.5 236.4 127 235.5C127.7 235.1 128.5 234.6 129.3 234.2C130.1 233.8 130.8 233.4 131.7 233.3C131.7 233.3 131.7 233.3 131.7 233.4V233.5C130.9 233.6 130.1 234 129.4 234.4C128.6 234.8 127.9 235.3 127.2 235.7C125.7 236.6 124.3 237.7 122.9 238.8C120.1 241 117.2 243.1 114.3 245.2L97.0001 257.7C94.1001 259.8 91.3001 261.8 88.5001 264.1C85.7001 266.4 83.0001 268.7 80.3001 271.1L63.6001 285.2C63.6001 285.3 63.7001 285.3 63.6001 285.2C63.6001 285.2 63.6001 285.3 63.6001 285.2Z" fill="#AD1883"/>
<path d="M68.6001 1.29982L67.1001 17.3998C66.6001 22.7998 66.1001 28.0998 65.5001 33.4998C64.9001 38.8998 64.3001 44.1998 63.6001 49.5998C63.2001 52.2998 62.8001 54.8998 62.5001 57.5998C62.2001 60.2998 61.9001 62.8998 61.7001 65.5998C61.3001 70.8998 61.2001 76.1998 61.3001 81.5998C61.4001 86.9998 61.6001 92.3998 61.7001 97.7998C61.8001 108.6 61.8001 119.4 61.7001 130.2C61.7001 130.3 61.7001 130.3 61.6001 130.3C61.6001 130.3 61.5001 130.3 61.5001 130.2C61.6001 119.4 61.5001 108.6 61.2001 97.8998C61.1001 95.1998 61.0001 92.4998 60.9001 89.7998C60.7001 87.0998 60.5001 84.3998 60.3001 81.7998C60.1001 79.0998 59.9001 76.3998 59.8001 73.6998C59.7001 70.9998 59.7001 68.1998 59.9001 65.4998C60.2001 59.9998 61.2001 54.6998 62.1001 49.3998C63.0001 44.0998 63.8001 38.7998 64.5001 33.4998C66.0001 22.8998 67.3001 12.1998 68.3001 1.49981C68.3001 1.39981 68.3001 1.39982 68.4001 1.39982C68.6001 1.19982 68.6001 1.19982 68.6001 1.29982Z" fill="#AD1883"/>
</svg>
