<svg width="106" height="46" viewBox="0 0 106 46" fill="none" xmlns="http://www.w3.org/2000/svg">
<path d="M28.7 36.2999C32.9 38.1999 37.3 39.4999 41.9 40.0999L44.6 40.4999C54.6 41.8999 71.4 44.3999 88.9 41.9999C96.9 40.8999 99.3 42.2999 102.5 44.1999L103.6 44.7999C104 44.9999 104.5 44.8999 104.9 44.3999C105.3 43.9999 105.4 43.2999 105.2 42.8999C100.8 32.8999 87.3 8.99991 56.3 2.49991C35.3 -1.90009 15.1 3.39991 1.9 8.59991C1.5 8.69991 1.19998 9.09991 0.999976 9.49991C0.799976 9.89991 0.799976 10.2999 0.999976 10.5999C9.09998 23.0999 18.3 31.5999 28.7 36.2999ZM101.1 40.4999C98.6 39.3999 95.4 38.7999 89.2 39.5999C72 41.8999 55.3 39.4999 45.4 38.0999L42.7 37.6999C27.6 35.5999 14.6 26.3999 3.99998 10.3999C16.9 5.49992 35.9 0.999912 55.5 5.09991C82.3 10.6999 95.7 29.6999 101.4 40.6999C101.4 40.5999 101.3 40.5999 101.1 40.4999Z" fill="#B4D462"/>
<path d="M1.60001 11.0999C1.70001 11.0999 1.80006 11.1999 1.90006 11.1999C17.4001 10.7999 35.7 12.9999 56.3 17.6999C77.2 22.4999 95.8 34.9999 103.5 44.7999C103.8 45.1999 104.5 45.1999 105 44.5999C105.5 44.0999 105.6 43.2999 105.3 42.8999C97.7 33.1999 79.5 20.3999 57.3 15.2999C36.6 10.5999 18.2 8.39986 2.50004 8.79986C1.90004 8.79986 1.30005 9.39986 1.20005 10.0999C1.00005 10.4999 1.20001 10.8999 1.60001 11.0999Z" fill="#B4D462"/>
<path d="M89.0999 29.1C90.9999 32.3 92.7 35.7 94.2 39.2C94.7 40.4 92.8 42.1 92.2 40.8C90.7 37.3 88.9999 33.9 87.0999 30.7C86.4999 29.6 88.3999 28 89.0999 29.1Z" fill="#B4D462"/>
<path d="M82.1999 25.0999C84.8999 29.5999 86.8999 34.6999 87.9999 40.3999C88.2999 41.7999 86.1999 42.8999 85.8999 41.4999C84.7999 35.9999 82.7999 31.0999 80.1999 26.7999C79.5999 25.5999 81.4999 23.9999 82.1999 25.0999Z" fill="#B4D462"/>
<path d="M72.1 20.5C74.4 27.7 77.3 34.4 80.9 40.7C81.5 41.8 79.6 43.5 78.9 42.3C75.4 36 72.4 29.3 70.1 22.1C69.7 20.8 71.7 19.2 72.1 20.5Z" fill="#B4D462"/>
<path d="M65.9999 18.6C67.7999 26.9 70.7999 34.4 74.9999 40.9C75.6999 42 73.6999 43.6 72.9999 42.5C68.6999 35.8 65.5999 28.2 63.7999 19.7C63.5999 18.3 65.6999 17.2 65.9999 18.6Z" fill="#B4D462"/>
<path d="M56.7999 15.8001C57.4999 25.4001 60.4999 33.7001 65.6999 40.2001C66.4999 41.2001 64.7999 43.2001 63.9999 42.2001C58.5999 35.4001 55.3999 26.9001 54.5999 16.9001C54.5999 15.4001 56.6999 14.4001 56.7999 15.8001Z" fill="#B4D462"/>
<path d="M52.3 14.7001C52.1 24.3001 54.2 32.7001 58.4 39.7001C59.1 40.8001 57.1 42.4001 56.4 41.3001C52 34.0001 49.9 25.1001 50.1 15.1001C50.2 13.7001 52.3 13.2001 52.3 14.7001Z" fill="#B4D462"/>
<path d="M42.4999 13.3C43.7999 23 46.9999 31.6 51.9999 38.6C52.6999 39.6 51.0998 41.7 50.2998 40.6C45.0998 33.2 41.6998 24.5 40.2998 14.3C40.1998 12.9 42.2999 11.8 42.4999 13.3Z" fill="#B4D462"/>
<path d="M34.2999 11.5001C33.4999 21.3001 35.3999 29.9001 39.7999 36.8001C40.4999 37.9001 38.4999 39.5001 37.7999 38.4001C33.1999 31.2001 31.1999 22.1001 32.0999 12.0001C32.1999 10.4001 34.3999 9.90008 34.2999 11.5001Z" fill="#B4D462"/>
<path d="M27.5 10.8999C28.4 20.2999 30.5 28.9999 35.2 35.9999C35.9 37.0999 34 38.6999 33.2 37.5999C28.4 30.4999 26.2999 21.5999 25.2999 11.9999C25.1999 10.4999 27.4 9.39992 27.5 10.8999Z" fill="#B4D462"/>
<path d="M16.1999 9.89992C16.8999 17.8999 20.3999 24.0999 23.8999 30.0999C24.5999 31.1999 22.5999 32.7999 21.8999 31.6999C18.1999 25.4999 14.6999 19.1999 13.9999 10.9999C13.8999 9.49992 16.0999 8.39992 16.1999 9.89992Z" fill="#B4D462"/>
<path d="M89.5998 29.1C92.7998 29.3 95.6998 30.1 98.4998 31.3C99.5998 31.8 98.3998 34.1 97.2998 33.6C94.6998 32.4 91.8999 31.7 88.8999 31.5C87.5999 31.4 88.2998 29 89.5998 29.1Z" fill="#B4D462"/>
<path d="M80.8999 23.7C85.2999 23.7 89.4998 24 93.5998 24.8C94.8998 25 94.0999 27.5 92.8999 27.3C88.7999 26.5 84.5999 26.2 80.1999 26.2C78.7999 26.2 79.4999 23.7 80.8999 23.7Z" fill="#B4D462"/>
<path d="M68.0999 18.5C75.4999 18 82.6999 18 89.3999 20.1C90.5999 20.5 89.3999 22.8 88.1999 22.4C81.6999 20.4 74.6999 20.5 67.3999 20.9C65.9999 21 66.7999 18.6 68.0999 18.5Z" fill="#B4D462"/>
<path d="M59.0999 15.8C67.7999 15 76.2999 14.1 84.3999 15.7C85.6999 15.9 84.8999 18.4 83.6999 18.2C75.6999 16.7 67.3999 17.5 58.8999 18.3C57.5999 18.3 57.7999 15.9 59.0999 15.8Z" fill="#B4D462"/>
<path d="M54 14.1999C60.6 12.1999 67.1999 10.4999 73.7999 8.89991C75.1999 8.59991 74.9999 10.9999 73.5999 11.2999C66.9999 12.8999 60.3999 14.6999 53.7999 16.5999C52.3999 16.9999 52.6 14.5999 54 14.1999Z" fill="#B4D462"/>
<path d="M44.5999 12.7999C50.7999 9.09987 57.1999 6.39987 63.6999 4.49987C65.0999 4.09987 64.8999 6.49987 63.4999 6.89987C57.1999 8.69987 51.0999 11.3999 44.9999 14.9999C43.5999 15.7999 43.2999 13.5999 44.5999 12.7999Z" fill="#B4D462"/>
<path d="M36.9999 11.4C43.4999 8.89997 49.5999 3.69996 56.1999 2.59996C57.5999 2.39996 57.3999 4.79996 55.9999 4.99996C49.5999 5.99996 43.5999 11.2 37.2999 13.6C35.9999 14.2 35.5999 12 36.9999 11.4Z" fill="#B4D462"/>
<path d="M29.2 10.6C35.1 5.99996 41.4 2.99996 47.8 1.69996C49.2 1.39996 49 3.79996 47.6 4.09996C41.6 5.29996 35.6 8.09997 30.1 12.4C28.8 13.4 27.9 11.6 29.2 10.6Z" fill="#B4D462"/>
<path d="M19.7 9.49997C25.6 5.39997 31.7 2.59996 38 1.19996C39.4 0.899963 39.2 3.29996 37.8 3.59996C31.9 4.89996 26.1 7.49997 20.6 11.4C19.3 12.2 18.4 10.4 19.7 9.49997Z" fill="#B4D462"/>
<path d="M26.9999 4.49987C21.6999 5.59987 16.4999 7.59987 11.2999 10.3999C9.89991 11.0999 9.59995 8.89986 10.9 8.19986C16.3 5.29986 21.6999 3.29987 27.0999 2.09987C28.5999 1.79987 28.3999 4.19987 26.9999 4.49987Z" fill="#B4D462"/>
</svg>
