<svg width="175" height="141" viewBox="0 0 175 141" fill="none" xmlns="http://www.w3.org/2000/svg">
<path d="M79.8999 77C80.3999 75.1 78.8999 73.1 76.9999 72.7C71.6999 71.5 59.6999 73.7 61.2999 81.5C62.8999 89.1 72.7999 85 76.8999 81.3C78.4999 80.3 79.3999 78.9 79.8999 77Z" fill="#30547B"/>
<path d="M110.8 92.7001C109.1 89.3001 105.6 88.3001 102.5 89.7001C101.4 89.7001 100.4 90.0001 99.4 90.6001C98.3 90.9001 97.4 91.4001 96.6 92.1001C92.9 92.9001 90.7 97.0001 92.4 100.5C94.6 105 99.6 105 103.5 103.2C104 103.1 104.6 103.1 105 102.9C109.6 101.8 113.1 97.3001 110.8 92.7001Z" fill="#30547B"/>
<path d="M114.2 58.9002C113.8 58.8002 113.4 58.7002 112.9 58.7002C108.4 58.9002 96.7 61.3002 100 68.2002C103.2 75.0002 113 68.6002 116.7 65.7002C119.9 63.3002 117.3 58.3002 114.2 58.9002Z" fill="#30547B"/>
<path d="M93.9 38.5001C94.3 36.1001 92.4999 34.1001 90.0999 34.1001C88.2999 34.1001 86.7999 34.6001 85.2999 35.3001C84.2999 35.5001 83.2 35.5001 82.2 35.8001C80.6 36.2001 79.8999 37.3001 79.7999 38.6001C77.6999 40.8001 79.9 45.5001 83.7 44.6001C87.6 43.6001 93 43.3001 93.9 38.5001Z" fill="#30547B"/>
<path d="M49.1 63.7002C50.3 61.3002 49.2 57.9002 45.9 58.5002C40.9 59.3002 26.4 59.5002 29.6 68.4002C31 72.5002 35 71.8002 38.3 71.0002C42 70.1002 47.1 69.9002 48.9 66.0002C49.3 65.1002 49.3 64.4002 49.1 63.7002Z" fill="#30547B"/>
<path d="M76.9 1.19999C74.5 1.59999 72.2999 2.29999 70.0999 3.39999C65.8999 5.49999 68.5 12.4 72.7 10.3C74.3 9.49999 75.7999 8.89999 77.5999 8.49999C82.1999 7.59999 81.6 0.299986 76.9 1.19999Z" fill="#30547B"/>
<path d="M61.4 27.4001C58.6 26.3001 56.3 26.4001 53.7 27.9001C53.5 28.0001 53.4 28.2001 53.3 28.3001C51.3 28.3001 49.3 28.6001 47.9 29.9001C45.9 31.7001 45.8 34.6001 47.7 36.5001C52.3 41.2001 59 36.6001 62.5 33.1001C64 31.6001 63.6 28.2001 61.4 27.4001Z" fill="#30547B"/>
<path d="M130.1 30.3C126.9 28.3 122.2 29.8 119.1 31.4C118.6 31.7 118.2 32 117.9 32.4C115.1 33.4 113.9 37.2 116.3 39.5C117.9 41.1 120.2 40.9 122.2 40.6C124.5 40.3 127 40.2 129.1 39.2C132.7 37.5 133.7 32.5 130.1 30.3Z" fill="#30547B"/>
<path d="M148.1 61.3001C147.8 59.7001 146.7 58.3001 144.5 58.7001C141.9 59.2001 139.7 59.9001 137.4 61.3001C136.6 61.8001 136.1 62.5001 135.9 63.3001C135.8 63.4001 135.8 63.4001 135.7 63.5001C133 66.1001 136.1 70.5001 139.4 69.5001C139.7 69.6001 140 69.6001 140.3 69.6001C141.5 69.5001 142.4 69.1001 143.1 68.5001C144.6 68.1001 145.9 67.5001 147.2 66.5001C149.2 65.0001 149.1 62.8001 148.1 61.3001Z" fill="#30547B"/>
<path d="M73.7 112.4C69.3 112.4 59 112.7 60.1 119.6C60.5 122.1 62.7 124 65.1 124.3C66.4 124.5 67.6 124.2 68.8 123.7C69.3 123.5 69.7 123.2 70.2 122.8C70.5 122.8 70.7 122.9 71 122.9C73.5 122.6 75.1 121.3 76 119.2C78.5 117.4 77.6 112.4 73.7 112.4Z" fill="#30547B"/>
<path d="M44.4999 89.7C40.4999 89.8 36.9 90.8 33.4 92.7C31.3 93.8 31.2 97.1 32.9 98.5C36.1 101.1 39.8 101.5 43.4 99.4C44.5 98.8 44.9999 97.9 45.0999 97C49.5999 96.6 49.1999 89.6 44.4999 89.7Z" fill="#30547B"/>
<path d="M8.50002 85.1C6.30002 85.4 4.40004 86 2.40004 86.9C-1.79996 89 2.20004 95.1 6.40004 93.1C7.20004 92.7 8.10002 92.5 9.00002 92.4C13.6 91.9 13.2 84.5 8.50002 85.1Z" fill="#30547B"/>
<path d="M101.6 131.5C99.6 132.2 97.5 132.9 95.5 133.6C91 135.1 93.3 142.1 97.8 140.6C99.8 139.9 101.9 139.2 103.9 138.5C108.3 136.9 106 129.9 101.6 131.5Z" fill="#30547B"/>
<path d="M25.9001 40.8C23.0001 39.2 20.0001 39.4 17.2001 41C14.9001 42.3 15.2 44.8 16.6 46.3C17.2 47.3 18.2001 48 19.7001 47.9C21.3001 47.8 22.9001 47.8 24.5001 47.7C28.1001 47.6 29.0001 42.5 25.9001 40.8Z" fill="#30547B"/>
<path d="M165.9 33.6C163.2 33.7 160.7 34.2 158.1 35.1C156.3 35.7 155.1 37.8 155.7 39.7C157.6 44.9 162.3 42.7 165.9 41C166 41 166.1 41 166.2 41C171 40.7 170.6 33.4 165.9 33.6Z" fill="#30547B"/>
<path d="M139.2 96.8C138.9 97 138.5 97.2 138.2 97.4C137.8 97.2 137.3 97.2 136.7 97.2C133.2 97.4 130.8 99.1 129 102C127.6 104.2 129.8 107.8 132.5 107.3C136.4 106.7 139.9 105.4 143.2 103C146.9 100.2 143 94 139.2 96.8Z" fill="#30547B"/>
<path d="M39.3 122.5C39.4 120.1 37.4 117.6 34.5 118.7C32 119.7 29.5 120.6 27 121.6C23.8 122.8 24.1001 126.7 26.7001 128.4C31.1001 131.2 36.5001 129.1 38.9001 124.8C39.4001 123.9 39.4 123.2 39.3 122.5Z" fill="#30547B"/>
<path d="M170.7 74C169.3 73.9 168.2 74.4 167.4 75.2C166.4 75.6 165.5 76.1 164.4 76.4C159.9 77.7 162.1 84.7 166.7 83.4C168 83 169.2 82.6 170.4 82C170.9 81.9 171.3 81.6 171.7 81.3C172.1 81.1 172.6 80.9 173 80.7C176.4 78.7 174 74.2 170.7 74Z" fill="#30547B"/>
<path d="M120.1 4.1001C120.3 2.3001 119.4 0.400098 117.3 0.200098C117 0.200098 116.7 0.200098 116.3 0.200098C116.3 0.200098 116.3 0.200098 116.3 0.100098C116.1 0.100098 115.9 0.200098 115.7 0.200098C112.4 0.200098 109.7 1.2001 107 3.6001C105.5 4.9001 105.9 7.5001 107.2 8.8001C111.1 12.5001 115.7 10.4001 119 7.1001C120.1 6.2001 120.3 5.1001 120.1 4.1001Z" fill="#30547B"/>
</svg>
