<svg width="153" height="116" viewBox="0 0 153 116" fill="none" xmlns="http://www.w3.org/2000/svg">
<path d="M40.5001 83.5999C41.1001 89.3999 51.9001 89.5999 51.3001 83.7999C50.5001 77.9999 39.7001 77.7999 40.5001 83.5999Z" fill="#FFD9DC"/>
<path d="M63.2 65.7C64.2 71.3 75 71.5 73.9 65.9C72.8 60.3 62.2 60.1 63.2 65.7Z" fill="#FFD9DC"/>
<path d="M31 60.7C31.6 66.5 41.8 66.9 41 61.2C40.1 55.5 30.4 54.9 31 60.7Z" fill="#FFD9DC"/>
<path d="M29.7001 110.8C29.0001 117.1 39.8 117.3 40.6 110.9C41.3 104.6 30.3001 104.5 29.7001 110.8Z" fill="#FFD9DC"/>
<path d="M60.4 109.8C59.4 116.2 68.7 117 70.2 110.4C71.6 103.8 61.3 103.4 60.4 109.8Z" fill="#FFD9DC"/>
<path d="M81.3001 89.1998C81.6001 95.0998 91.4001 95.6998 91.4001 89.5998C91.3001 83.6998 80.9001 83.2998 81.3001 89.1998Z" fill="#FFD9DC"/>
<path d="M114.5 32.6999C114.8 38.5999 125.5 38.8999 125.3 32.8999C125.2 26.7999 114.4 26.6999 114.5 32.6999Z" fill="#FFD9DC"/>
<path d="M21.5 32.7C20.7 39 29.7 40 30.2 33.7C30.9 27.4 22.6 26.2 21.5 32.7Z" fill="#FFD9DC"/>
<path d="M0.0999532 53.5999C0.199953 59.5999 9.29998 60.4999 8.99998 54.4999C8.59998 48.5999 -0.100047 47.5999 0.0999532 53.5999Z" fill="#FFD9DC"/>
<path d="M7.59994 87.7999C6.99994 94.0999 17.3999 94.3999 17.5999 88.2999C17.5999 82.1999 7.99994 81.5999 7.59994 87.7999Z" fill="#FFD9DC"/>
<path d="M62.4 5.69991C59.4 12.8999 68.1 13.8999 70.4 6.99992C72.9 -8.4877e-05 65.7 -1.70009 62.4 5.69991Z" fill="#FFD9DC"/>
<path d="M103.6 107.1C101 114.2 108.2 115.8 111.5 108.4C114.3 101.3 105.8 100.2 103.6 107.1Z" fill="#FFD9DC"/>
<path d="M104 59.9998C105 65.6998 115.1 66.0998 114.4 60.3998C113.6 54.5998 103 54.2998 104 59.9998Z" fill="#FFD9DC"/>
<path d="M128.8 77.5C128.5 83.7 136.9 84.8 137.5 78.5C137.9 72.3 128.9 71.4 128.8 77.5Z" fill="#FFD9DC"/>
<path d="M143.5 47.8C143.8 53.7 152.4 54.8 152.3 48.7C152.6 42.6 143.5 41.8 143.5 47.8Z" fill="#FFD9DC"/>
<path d="M62 28.9999C61.9 35.0999 72.1 35.4999 71.9 29.4999C71.8 23.4999 62.3 22.7999 62 28.9999Z" fill="#FFD9DC"/>
<path d="M93.0999 9.39997C91.4999 16.1 101.7 16.5 102.8 9.99997C104 3.49997 94.7999 2.69997 93.0999 9.39997Z" fill="#FFD9DC"/>
</svg>
