<svg width="85" height="118" viewBox="0 0 85 118" fill="none" xmlns="http://www.w3.org/2000/svg">
<path d="M48.4 15.7001C48.4 15.7001 48.5 15.6001 48.4 15.7001C48.5 15.6001 48.5 15.5001 48.6 15.5001C48.7 15.4001 48.8 15.3001 48.9 15.2001C50 13.9001 50.8 12.6001 51 10.9001C51.3 9.10011 50.9 7.60011 50.1 6.00011C49.8 5.30011 49.3 4.70011 48.7 4.10011C47.5 2.70011 45.8 1.60011 44.1 1.10011C41.5 0.400106 38.5 1.00011 36.6 3.00011C35.5 4.20011 34.1 5.40011 33.2 6.80011C30.9 10.6001 32 15.8001 35.9 18.2001C40 20.7001 45.3 19.0001 48.4 15.7001Z" fill="#FFF0A6"/>
<path d="M51.1999 59C51.4999 58.8 51.8 58.7 52 58.5C52.5 58.2 53 57.8 53.3 57.3C54.4 56.2 55.0999 54.8 55.6999 53.3C56.4999 51 55.8 48.4 54.4 46.6C52.9 44.7 50.9 43.7 48.5 43.5H48.4C47.9 43.2 47.3 42.9 46.7 42.8C44.7 42.3 42.5 42.4 40.8 43.5C39.2 44.5 37.6 46.1 37.2 48.1C36.9 49.8 36.7999 51.1 37.0999 52.8C37.2999 53.7 37.7 54.6 38.2 55.4C39.4 57.6 41.5 59.1 43.9 59.8C45.3 60.2 46.2999 60.2 47.5999 60C48.9999 59.9 49.8999 59.7 51.1999 59Z" fill="#FFF0A6"/>
<path d="M12.9 42.5002C13.5 42.3002 14.4 42.0002 15 41.7002C15.6 41.4002 16.8 40.4002 16.8 40.4002C18.8 38.3002 19.9 35.2002 19 32.4002C18.6 31.1002 17.9 29.9002 17 29.0002C16.3 28.0002 15.3 27.1002 14.3 26.4002C13 25.6002 11.4 25.2002 9.90002 25.2002C9.20002 25.3002 8.50002 25.4002 7.90002 25.4002C6.90002 25.6002 6.00001 26.1002 5.20001 26.8002C4.00001 27.7002 2.70002 29.2002 2.40002 30.7002C2.40002 30.9002 2.29999 31.0002 2.29999 31.2002C1.99999 31.6002 1.79998 32.1002 1.59998 32.6002C1.09998 33.5002 0.900024 34.4002 0.900024 35.5002C0.900024 37.4002 1.69998 39.7002 3.09998 41.0002C4.49998 42.3002 6.40002 43.3002 8.40002 43.3002C9.10002 43.2002 9.80002 43.1002 10.4 43.1002C10.6 43.0002 10.8 43.0002 11 42.9002C11.7 42.7002 12.3 42.7002 12.9 42.5002Z" fill="#FFF0A6"/>
<path d="M24.6 80.1001C26.3 79.2001 27.6 77.4001 28.2 75.5001C28.7 73.7001 28.5 71.2001 27.5 69.6001C26.5 68.0001 24.9 66.5001 22.9 66.0001C22.4 65.9001 21.9 65.8001 21.4 65.8001C20.5 65.4001 19.4 65.1001 18.3 65.1001C14.8 65.0001 11.6 67.5001 10.7 70.9001C9.90001 73.7001 10.8 76.7001 12.8 78.7001C13.9 79.8001 15.3 80.6001 16.8 81.1001C19.3 81.9001 22.2 81.4001 24.6 80.1001Z" fill="#FFF0A6"/>
<path d="M48.9 103.1C49.4 102.3 49.7999 101.3 49.9999 100.4C50.4999 98.6001 50.3999 97.4001 50.0999 95.6001C49.7999 93.7001 48.6999 91.7001 47.2999 90.4001C45.8999 89.1001 43.9999 88.2001 41.9999 88.1001C40.0999 88.1001 37.7999 88.9001 36.4999 90.3001C35.1999 91.7001 34.2 93.6001 34.2 95.6001C34.2 96.5001 34.4 97.5001 34.7 98.4001C34.6 99.3001 34.7 100.2 34.9 101C35.4 102.8 36.7 104.8 38.4 105.7C40.1 106.6 42.3 107.1 44.2 106.5C46.2 106 47.8 104.8 48.9 103.1Z" fill="#FFF0A6"/>
<path d="M74.9 116.3C76.3 115.4 77.1999 114.6 78.0999 113.2C78.8999 111.9 79.3 110.3 79.3 108.8C79.3 105.7 77.6999 102.7 74.9999 101.1C72.7999 99.8 69.5 99.6 67.3 101C65.3 102.3 63.7999 104 63.1999 106.3C62.5999 108.6 62.8999 111.1 64.0999 113.1C64.6999 114.1 65.5 114.9 66.4 115.6C67.2 116.2 68.0999 116.7 69.0999 117C70.9999 117.5 73.2 117.4 74.9 116.3Z" fill="#FFF0A6"/>
<path d="M73.3001 79.8001C75.1001 79.3001 77.1 78.0001 78 76.3001C78.9 74.6001 79.4001 72.4001 78.8001 70.5001C78.2001 68.7001 77.1001 66.6001 75.3001 65.8001C73.4001 65.0001 72.6 64.6001 70.5 64.5001C69.4 64.4001 68.3 64.6001 67.2 64.9001C65.2 65.6001 63.6 66.6001 62.5 68.4001C61.5 70.0001 61.1 72.4001 61.7 74.2001C62.3 76.1001 63.4 77.9001 65.2 78.9001C66.7 79.7001 68.5 80.2001 70.2 79.9001C71.3 80.2001 72.3001 80.1001 73.3001 79.8001Z" fill="#FFF0A6"/>
<path d="M80.1999 41.0001C81.3999 40.3001 82.4999 39.1001 83.1999 37.8001C83.8999 36.7001 84.3 35.4001 84.3 34.1001C84.2 32.0001 83.5999 30.1001 82.0999 28.6001C80.1999 26.7001 77.1999 25.7001 74.5999 26.5001C72.5999 27.1001 70.7999 28.3001 69.6999 30.2001C68.6999 31.9001 68.2 34.3001 68.8 36.2001C69.2 37.5001 69.8 38.8001 70.8 39.8001C71.3 40.2001 71.8 40.6001 72.3 41.0001C72.9 41.3001 73.5999 41.5001 74.1999 41.8001C75.1999 42.1001 76.1999 42.2001 77.1999 42.0001C78.2999 41.8001 79.2999 41.5001 80.1999 41.0001Z" fill="#FFF0A6"/>
<path d="M45.4 11.5001C45.5 10.6001 45.4999 9.60015 45.0999 8.70015C45.0999 8.60015 45 8.50015 45 8.40015C44.9 7.80015 44.5999 7.30015 44.0999 7.00015C43.5999 6.50015 42.8999 6.40015 42.0999 6.40015C40.7999 6.40015 39.4999 6.90015 38.5999 7.70015C37.7999 8.10015 37.1 8.80015 36.9 9.80015C36.9 10.0001 36.7999 10.2001 36.7999 10.3001C36.5999 10.9001 36.6 11.6001 36.7 12.3001C37.1 14.3001 39 15.7001 41 15.6001C43.2 15.4001 45 13.7001 45.4 11.5001Z" fill="#AD1883"/>
<path d="M77.7 39.0001C78.9 38.7001 79.3 37.7001 79 36.8001L79.1 36.7001C80.3 35.2001 79.8001 33.1001 77.9001 32.5001C77.6001 32.4001 77.3 32.4001 77 32.3001C76.7 31.9001 76.4001 31.6001 75.9001 31.5001C74.6001 31.0001 73 31.5001 72.1 32.5001C71.1 33.6001 71 35.2001 71.6 36.5001C72.3 37.9001 73.6 38.6001 75 38.6001C75.9 39.0001 76.8 39.2001 77.7 39.0001Z" fill="#AD1883"/>
<path d="M72.6998 75.7001C73.8998 74.7001 74.5999 73.0001 73.9999 71.5001C73.3999 69.8001 71.4998 68.6001 69.6998 69.2001C69.2998 69.3001 68.9998 69.6001 68.6998 69.9001C68.0998 70.2001 67.4998 70.6001 67.0998 71.1001C66.1998 72.3001 66.0999 73.8001 66.8999 75.1001C66.9999 75.2001 67.0998 75.4001 67.1998 75.5001C67.5998 76.0001 67.9998 76.4001 68.5998 76.6001C69.9998 77.1001 71.4998 76.6001 72.6998 75.7001Z" fill="#AD1883"/>
<path d="M22.3 71.3002C21.4 68.7002 17.8 68.1001 16.1 70.7001C14.6 73.2001 16.5 77.4001 19.5 77.6001C22.5 77.7001 24.7 73.3002 22.3 71.3002Z" fill="#AD1883"/>
<path d="M46.4 99.5001C46.4 98.9001 46.2 98.5001 45.8 98.2001C46.2 96.8001 46 95.3001 44.9 94.1001C43.7 92.8001 41.6 92.4001 40.1 93.4001C39.5 93.8001 39.2 94.2001 39.1 94.8001L39 94.9001C37.7 96.1001 37.5 97.8001 38.2 99.2001C38.2 100.4 38.4 101.6 39.5 102.3C40.7 103.1 42.3 102.9 43.6 102.3C45 102.3 46.5 101.1 46.4 99.5001Z" fill="#AD1883"/>
<path d="M75.4999 111.7C76.8999 109.4 75.6999 106.1 72.9999 105.5C72.3999 105.4 71.9999 105.5 71.5999 105.7C70.8999 105.3 70.0999 105.2 69.1999 105.5C65.9999 106.5 65.5999 110.6 67.9999 112.6C70.1999 114.6 73.8999 114.3 75.4999 111.7Z" fill="#AD1883"/>
<path d="M13.8999 36.2001C13.8999 36.0001 13.9999 35.8001 13.9999 35.7001C15.1999 35.3001 15.8999 33.7001 14.7999 32.6001C12.8999 30.7001 9.69994 29.7001 7.39994 31.6001C5.39994 33.3001 5.09991 36.7001 7.49991 38.3001C9.59991 39.6001 13.2999 38.9001 13.8999 36.2001Z" fill="#AD1883"/>
<path d="M50.0999 54.2002C50.7999 53.7002 51.1999 53.0002 50.9999 52.2002C51.2999 51.5002 51.3999 50.6002 50.9999 49.8002C50.6999 49.2002 50.3 48.7002 49.8 48.5002C49 46.7002 46.6999 45.9002 44.7999 46.5002C43.4999 46.9002 42.3999 47.9002 42.2999 49.3002C42.2999 49.7002 42.3 50.1002 42.4 50.5002C42.3 51.4002 42.4999 52.4002 42.9999 53.2002C43.8999 54.6002 45.4999 55.1002 46.9999 55.0002C48.0999 55.1002 49.1999 54.9002 50.0999 54.2002Z" fill="#AD1883"/>
</svg>
