<svg width="121" height="221" viewBox="0 0 121 221" fill="none" xmlns="http://www.w3.org/2000/svg">
<path d="M0 16.9001C0 16.9001 15.3 33.5001 17.6 36.4001C20 39.3001 24.3 46.7001 27 48.4001C29.7 50.1001 37.7 49.3001 40.7 50.0001C43.7 50.7001 48.2 50.4001 49 51.8001C49.8 53.2001 60.6 69.6001 63.7 73.9001C68.1 80.0001 74.9 91.4001 75.5 92.8001C76.1 94.2001 83.5 111.1 83 111.7C82.3 112.5 66.6 93.5001 64.4 90.8001C62.2 88.1001 58.8 82.3001 52.1 77.8001C45.4 73.3001 11.8 76.0001 11.8 76.0001C11.8 76.0001 25.1 88.5001 36.9 93.8001C48.8 99.2001 62.2 93.4001 63.5 94.2001C64.8 95.0001 84.7 117.8 85.6 120.3C86.5 122.8 98.5 155.3 104.5 173.5C110.5 191.7 119.4 220.6 119.4 220.6L120.8 220.4C120.8 220.4 108.1 182.1 104 167.6C99.9 153.1 105.5 131.6 107.2 127C108.9 122.4 113.3 121.5 114.9 116.2C116.4 110.9 115.1 99.7001 113.1 93.5001C111.1 87.2001 103.7 78.2001 103.7 78.2001C103.7 78.2001 99 95.0001 99.8 105.8C100.6 116.4 107.8 120.1 106.3 124.1C104.8 128 100.5 147.4 100.3 150.9C100 154.4 89.7 125.7 87.8 119.4C85.9 113.1 79.3 98.2001 78 92.7001C76.7 87.2001 74.6 77.0001 75.5 70.6001C76.3 64.2001 88.5 51.0001 85.2 35.9001C81.9 20.7001 77.6 19.6001 75.7 13.7001C74.1 8.7001 73.6 0.600098 73.6 0.600098C73.6 0.600098 64.8 22.4001 65.7 29.7001C68.9 55.0001 73.1 65.6001 73.2 69.5001C73.4 75.4001 74.1 85.0001 74.1 85.0001C74.1 85.0001 52.2 54.6001 50.4 50.1001C48.7 45.5001 40.5 30.5001 33.6 25.2001C26.5 20.0001 0 16.9001 0 16.9001Z" fill="#AD1883"/>
</svg>
