<svg width="94" height="167" viewBox="0 0 94 167" fill="none" xmlns="http://www.w3.org/2000/svg">
<g opacity="0.85">
<path opacity="0.85" d="M10.2 8.09977C16.5 16.1998 22.7999 32.7998 22.9999 36.3998C23.1999 39.9998 -6.10005 56.1998 1.19995 86.3998C8.59995 116.6 22.9999 121.6 35.7999 131.1C48.5999 140.7 47.4999 143.4 55.0999 149C62.6999 154.6 67.8 154.1 72.2 157.2C76.6 160.3 89.5999 166.1 89.5999 166.1C89.5999 166.1 87.4999 157 90.4999 141C93.4999 125 94.1 106.6 86.7 89.8998C79.3 73.1998 84.3999 47.5998 64.0999 35.7998C43.6999 23.9998 33.2 35.4998 29.4 32.4998C25.5 29.5998 18.2 9.69979 14.4 4.49979C10.3 -1.20021 3.89995 -0.00023222 10.2 8.09977Z" fill="#B4D462"/>
<g opacity="0.85">
<g opacity="0.85">
<path opacity="0.85" d="M11.6999 5.2998C11.5999 5.2998 11.3999 5.29984 11.2999 5.39984C10.9999 5.59984 10.8999 5.9998 11.0999 6.2998C16.1999 15.1998 20.9999 24.4998 25.2999 33.9998C34.4999 53.8998 39.3999 68.9998 43.6999 82.2998C45.2999 87.2998 46.7999 91.9998 48.4999 96.5998C56.9999 120.5 69.7999 143.6 86.2999 165.1C86.4999 165.4 86.8999 165.4 87.0999 165.1C87.3999 164.9 87.3999 164.5 87.1999 164.2C70.6999 142.8 57.9999 119.8 49.4999 95.9998C47.8999 91.3998 46.3999 86.6998 44.6999 81.6998C40.3999 68.3998 35.4999 53.2998 26.2999 33.2998C21.8999 23.7998 17.0999 14.3998 11.9999 5.49982C11.9999 5.49982 11.7999 5.3998 11.6999 5.2998Z" fill="#30547B"/>
<path opacity="0.85" d="M44.8999 36.9C37.8999 36.4 31.9999 37.8 28.3999 39C28.0999 39.1 27.8999 39.4999 27.9999 39.7999C28.0999 40.0999 28.3999 40.3 28.6999 40.2C33.9999 38.5 44.5999 36.1999 55.9999 40.5999C72.7999 46.9999 79.3999 63.2 80.9999 68C81.0999 68.3 81.3999 68.4999 81.6999 68.2999C81.9999 68.1999 82.1999 67.8 82.0999 67.5C80.4999 62.6 73.6999 46 56.3999 39.4C52.3999 37.9 48.4999 37.2 44.8999 36.9Z" fill="#30547B"/>
<path opacity="0.85" d="M43.0999 45.3997C39.4999 45.1997 35.6 45.3996 31.5 46.0996C31.2 46.1996 30.9 46.4996 31 46.7996C31 47.0996 31.2999 47.3996 31.5999 47.2996C41.8999 45.4996 50.6999 46.7996 57.5999 51.0996C63.5999 54.7996 68.4 62.2997 78.7999 78.8997C81.6999 83.5997 84.6 88.3996 87.4 93.0996C87.6 93.3996 87.9 93.4996 88.2 93.2996C88.5 93.0996 88.6 92.6997 88.4 92.3997C85.6 87.5997 82.6999 82.7996 79.7999 78.0996C69.9999 62.4996 64.6999 53.9997 58.2999 49.9997C53.8999 47.2997 48.7999 45.7997 43.0999 45.3997Z" fill="#30547B"/>
<path opacity="0.85" d="M46.5999 88.6997C46.2999 88.6997 46.0999 88.8997 45.9999 89.0997C45.8999 89.3997 45.9999 89.7997 46.2999 89.8997C54.2999 92.7997 65.5999 98.9997 74.1999 112.1C86.8999 131.4 85.0999 153.1 83.6999 161.5C83.5999 161.8 83.8999 162.2 84.1999 162.2C84.4999 162.2 84.7999 162 84.8999 161.6C86.2999 153 88.0999 131 75.1999 111.3C66.4999 97.9997 54.8999 91.6997 46.7999 88.6997C46.6999 88.6997 46.6999 88.6997 46.5999 88.6997Z" fill="#30547B"/>
<path opacity="0.85" d="M49.9999 98.3999C49.7999 98.3999 49.5 98.4999 49.4 98.6999C49.2 98.9999 49.2999 99.3999 49.5999 99.5999C55.5999 103.1 64.1999 109.6 70.7999 120.9C77.6999 132.7 79.3999 147.2 79.7999 154.7C79.7999 155 80.1 155.3 80.4 155.3C80.7 155.3 80.9999 154.9 80.9999 154.6C80.5999 146.9 78.9 132.3 71.9 120.2C65.2 108.7 56.3999 102.1 50.2999 98.4999C50.1999 98.3999 50.0999 98.3999 49.9999 98.3999Z" fill="#30547B"/>
<path opacity="0.85" d="M43.5 77C43.2 77 43 77.2 42.9 77.5C42.8 77.8 43 78.2 43.3 78.3C51.2 80.8 62.8 86.1 73 97.6C83.8 109.8 88.8 127.2 90.4 134.1C90.5 134.4 90.8 134.6 91.1 134.5C91.4 134.4 91.6 134 91.5 133.7C89.9 126.7 84.8 109.1 73.9 96.7C63.6 85 51.8 79.6 43.8 77.1C43.6 77 43.5 77 43.5 77Z" fill="#30547B"/>
<path opacity="0.85" d="M40.6999 54.1C38.7999 54 36.7999 54 34.6999 54C34.3999 54 34.0999 54.3 34.0999 54.7C34.0999 55.1 34.2999 55.3 34.6999 55.3C45.5999 54.9 54.3999 57.4 60.6999 62.8C65.1999 66.6 67.1999 70.6 70.5999 77.3C72.2999 80.7 74.1999 84.5 76.9999 89.2C81.3999 96.9 86.3999 104.3 91.6999 111.1C91.8999 111.4 92.2999 111.4 92.4999 111.1C92.7999 110.9 92.7999 110.5 92.5999 110.2C87.2999 103.4 82.3999 96 77.9999 88.4C75.2999 83.7 73.3999 79.9 71.6999 76.6C68.3999 70 66.0999 65.7 61.4999 61.7C56.0999 57.3 49.1999 54.7 40.6999 54.1Z" fill="#30547B"/>
<path opacity="0.85" d="M38.5999 64.3999C38.2999 64.3999 37.9999 64.5999 37.8999 64.9999C37.8999 65.3999 38.0999 65.6999 38.3999 65.6999C46.1999 66.3999 52.9999 68.7999 58.6999 72.7999C62.4999 75.3999 66.1999 78.8999 78.7999 98.8999L80.0999 101C84.5999 108.1 89.1999 115.4 91.9999 122C92.0999 122.3 92.4999 122.4 92.7999 122.3C93.0999 122.1 93.1999 121.8 93.0999 121.4C90.2999 114.7 85.5999 107.3 81.0999 100.2L79.7999 98.0999C67.0999 77.8999 63.2999 74.3999 59.3999 71.6999C53.5999 67.5999 46.5999 65.1999 38.5999 64.3999Z" fill="#30547B"/>
<path opacity="0.85" d="M56.8 114.8C56.6 114.8 56.4 114.9 56.2 115.1C56 115.4 56.1 115.8 56.4 116C60.9 118.9 64.7 122.7 67.7 127.3C72.7 135 74.2 143.1 74.6 148.6C74.6 148.9 74.9 149.2 75.2 149.1C75.5 149 75.8 148.7 75.7 148.4C75.3 142.8 73.8 134.5 68.6 126.6C65.5 121.9 61.6 118 57 114.9C57 114.8 56.9 114.8 56.8 114.8Z" fill="#30547B"/>
<path opacity="0.85" d="M57.4 116C57.3 116 57.3 116 57.4 116C57 116 56.7 116.3 56.7 116.7C56.6 121.2 57.2 129.9 62.4 137.9C66.3 144 71.4 147.4 74.9 149.1C75.2 149.2 75.5 149.1 75.7 148.8C75.9 148.5 75.7 148.1 75.5 148C72.1 146.3 67.3 143.1 63.5 137.2C58.5 129.4 57.9 121 58 116.7C57.9 116.3 57.7 116 57.4 116Z" fill="#30547B"/>
<path opacity="0.85" d="M50 98.3999C49.7 98.3999 49.5 98.5999 49.4 98.8999C47.7 104.8 46.2 113.8 48.8 123.4C51.3 132.7 56.4 138 60.9 142.7C66.2 148.2 72.4 152.6 79.5 155.7C79.8 155.8 80.1 155.7 80.3 155.3C80.4 155 80.3 154.6 80 154.5C73.1 151.5 67 147.2 61.8 141.8C57.4 137.2 52.4 132 50 123C47.5 113.7 49 105 50.6 99.2999C50.7 98.9999 50.5 98.5999 50.2 98.4999C50.1 98.3999 50.1 98.3999 50 98.3999Z" fill="#30547B"/>
<path opacity="0.85" d="M46.5998 88.6997C46.3998 88.6997 46.0999 88.7997 45.9999 89.0997C42.6999 95.4997 37.5999 108.3 40.8999 122.2C43.6999 133.9 51.0998 140.6 57.0998 145.9C64.2998 152.3 72.5999 156.8 81.8999 159.3C82.1999 159.4 82.4998 159.2 82.5998 158.8C82.6998 158.5 82.4999 158.1 82.1999 158C73.0999 155.5 64.8999 151.1 57.7999 144.8C51.5999 139.3 44.5999 133.1 41.8999 121.7C38.6999 108.2 43.5999 95.7997 46.8999 89.5997C47.0999 89.2997 46.9999 88.8997 46.6999 88.6997C46.7999 88.6997 46.6998 88.6997 46.5998 88.6997Z" fill="#30547B"/>
<path opacity="0.85" d="M42.5999 76.2998C42.4999 76.2998 42.3 76.2998 42.2 76.3998C36.5 81.3998 29.5 89.4998 28.5 99.8998C27.6 109.6 32.1999 117.8 39.0999 130.2C40.8999 133.5 42.9999 136.7 45.0999 139.8C45.2999 140.1 45.7 140.1 45.9 139.9C46.2 139.7 46.2 139.3 46 139C43.9 136 41.8999 132.8 40.0999 129.5C33.2999 117.3 28.6999 109.2 29.5999 99.9998C30.4999 90.0998 37.3 82.1998 42.9 77.3998C43.2 77.1998 43.2 76.7998 43 76.4998C42.9 76.3998 42.7999 76.2998 42.5999 76.2998Z" fill="#30547B"/>
<path opacity="0.85" d="M38.5999 64.3999C38.3999 64.3999 38.2999 64.3999 38.1999 64.5999C34.3999 68.3999 25.1999 78.7999 23.0999 94.9999C20.8999 112.1 27.8999 124.1 30.9999 128.4C31.1999 128.7 31.5999 128.7 31.7999 128.5C32.0999 128.3 32.0999 127.9 31.8999 127.6C28.8999 123.4 21.9999 111.7 24.1999 95.0999C26.1999 79.3999 35.0999 69.1999 38.8999 65.4999C39.0999 65.2999 39.1999 64.8999 38.9999 64.5999C38.8999 64.4999 38.7999 64.3999 38.5999 64.3999Z" fill="#30547B"/>
<path opacity="0.85" d="M34.8 54.0996C34.7 54.0996 34.5 54.0996 34.4 54.1996C29.7 58.1996 23.3 65.0996 19.6 75.1996C15.3 86.7996 16.6 96.7996 17.4 103.5C18.2 110 19.9 116.4 22.4 122.3C22.5 122.6 22.9 122.7 23.2 122.6C23.5 122.4 23.6 122 23.5 121.7C21 115.9 19.3 109.7 18.5 103.3C17.7 96.7996 16.5 86.8996 20.6 75.6996C24.2 65.7996 30.5 59.0996 35 55.2996C35.3 55.0996 35.3 54.6997 35.1 54.3997C35.1 54.1997 35 54.0996 34.8 54.0996Z" fill="#30547B"/>
<path opacity="0.85" d="M28.5999 39C28.4999 39 28.3999 39 28.2999 39.1C23.7999 41.6 12.8 48.8 6.39998 63.4C0.799975 76.2 1.69996 87.9 2.69996 93.7C2.79996 94 3.09998 94.2 3.39998 94.2C3.69998 94.1 3.89998 93.8 3.89998 93.4C2.89998 87.8 1.99995 76.4 7.49995 63.9C13.7 49.7 24.4999 42.6 28.7999 40.2C29.0999 40 29.1999 39.7 29.0999 39.3C28.9999 39.2 28.7999 39 28.5999 39Z" fill="#30547B"/>
<path opacity="0.85" d="M30.6999 47.0996C30.5999 47.0996 30.4999 47.0996 30.3999 47.1996C19.0999 53.3996 12.3998 60.7996 10.2998 68.9996C9.29984 72.8996 9.69987 75.6996 10.3999 82.5996C10.6999 85.3996 11.0999 88.9996 11.4999 93.4996C12.0999 99.9996 12.4998 106.6 12.7998 113C12.7998 113.3 13.0999 113.6 13.3999 113.6C13.6999 113.6 13.9999 113.2 13.9999 112.9C13.6999 106.4 13.2999 99.7996 12.6999 93.2996C12.2999 88.6996 11.8998 85.1997 11.5998 82.3997C10.7998 75.6997 10.4999 72.8996 11.3999 69.2996C13.2999 61.3996 19.8998 54.3997 30.7998 48.3997C31.0998 48.1997 31.1998 47.8996 31.0998 47.4996C31.0998 47.1996 30.8999 47.0996 30.6999 47.0996Z" fill="#30547B"/>
</g>
</g>
</g>
</svg>
