<svg width="123" height="235" viewBox="0 0 123 235" fill="none" xmlns="http://www.w3.org/2000/svg">
<g opacity="0.85">
<path opacity="0.85" d="M111.9 224.5C103.5 212.9 94.8 189.6 94.4 184.6C94 179.6 131.2 158.9 120.6 116.6C110 74.3002 91.3 66.5002 74.5 52.5002C57.7 38.5002 59 34.7002 49 26.5002C39 18.3002 32.4999 18.7002 26.7999 14.1002C21.0999 9.50016 4.19997 0.700195 4.19997 0.700195C4.19997 0.700195 7.19998 13.5002 3.89998 35.5002C0.599978 57.5002 0.499966 83.0002 10.7 106.6C20.9 130.2 15.1999 165.4 41.7999 183C68.3999 200.6 81.4999 185.3 86.5999 189.6C91.6999 193.9 101.9 221.9 106.9 229.4C112.1 237.4 120.3 236.1 111.9 224.5Z" fill="#30547B"/>
<g opacity="0.85">
<g opacity="0.85">
<path opacity="0.85" d="M110.1 228.2C110.3 228.2 110.4 228.2 110.6 228.1C110.9 227.8 111.1 227.3 110.8 226.9C104 214.2 97.5 201 91.5 187.6C78.9 159.4 72.1 138.2 66.1 119.5C63.8 112.5 61.7 105.8 59.4 99.4C47.6 65.7 30.4 33 8.20001 2.09996C7.90001 1.69996 7.49997 1.69999 7.09997 1.99999C6.79997 2.29999 6.7 2.9 7 3.2C29 33.9 46.1 66.5 57.9 100C60.2 106.4 62.3 113 64.5 120.1C70.5 138.8 77.3 160 89.9 188.4C95.9 201.8 102.4 215.1 109.3 227.8C109.7 228.1 109.9 228.2 110.1 228.2Z" fill="#FEB0AD"/>
<path opacity="0.85" d="M66.1999 182.4C75.1999 183.4 82.7999 181.9 87.3999 180.4C87.7999 180.3 87.9999 179.8 87.8999 179.3C87.7999 178.8 87.3999 178.5 86.9999 178.7C80.1999 180.8 66.5999 183.3 51.8999 176.6C29.9999 166.7 20.9999 143.9 18.6999 137.1C18.4999 136.6 18.0999 136.4 17.6999 136.6C17.2999 136.8 17.0999 137.3 17.2999 137.7C19.5999 144.6 28.8999 168 51.2999 178.2C56.4999 180.6 61.5999 181.9 66.1999 182.4Z" fill="#FEB0AD"/>
<path opacity="0.85" d="M68.2 170.8C72.9 171.3 77.8999 171.2 83.0999 170.5C83.4999 170.4 83.7999 170 83.7999 169.5C83.6999 169 83.3999 168.7 82.9999 168.7C69.7999 170.6 58.4 168.3 49.4 161.9C41.6 156.4 35.0999 145.7 21.0999 122.1C17.1999 115.4 13.2999 108.6 9.59992 101.9C9.39992 101.5 8.89992 101.4 8.59992 101.6C8.29992 101.9 8.19996 102.4 8.39996 102.8C12.1 109.6 15.9999 116.4 19.9999 123.1C33.0999 145.3 40.3 157.5 48.7 163.4C54.3 167.5 60.8 170 68.2 170.8Z" fill="#FEB0AD"/>
<path opacity="0.85" d="M62.0999 110.6C62.3999 110.6 62.8 110.4 62.9 110C63 109.5 62.7999 109 62.4999 108.9C52.0999 104.4 37.2999 95.0998 25.7999 76.4998C8.79992 48.9998 10.2999 18.9998 11.7999 7.39982C11.8999 6.89982 11.5999 6.49982 11.1999 6.39982C10.7999 6.29982 10.3999 6.69977 10.2999 7.09977C8.79992 18.8998 7.2999 49.3998 24.5999 77.4998C36.2999 96.4998 51.3999 105.9 61.9999 110.5C61.9999 110.6 61.9999 110.6 62.0999 110.6Z" fill="#FEB0AD"/>
<path opacity="0.85" d="M57.3999 96.8998C57.6999 96.8998 57.9999 96.7998 58.0999 96.3998C58.2999 95.9998 58.1999 95.3998 57.7999 95.1998C49.8999 90.0998 38.5999 80.4998 29.6999 64.4998C20.3999 47.6998 17.6999 27.5998 16.8999 17.0998C16.8999 16.5998 16.4999 16.2998 16.0999 16.2998C15.6999 16.2998 15.3999 16.7998 15.3999 17.2998C16.1999 27.8998 18.8999 48.3998 28.3999 65.4998C37.4999 81.8998 48.9999 91.5998 56.9999 96.7998C57.1999 96.7998 57.2999 96.8998 57.3999 96.8998Z" fill="#FEB0AD"/>
<path opacity="0.85" d="M66.5998 127C66.8998 127 67.2999 126.8 67.3999 126.4C67.4999 125.9 67.2999 125.4 66.8999 125.3C56.5999 121.4 41.5998 113.3 28.0998 96.8002C13.7998 79.2002 6.79987 54.8002 4.39987 45.2002C4.29987 44.7002 3.89985 44.5002 3.49985 44.6002C3.09985 44.7002 2.89985 45.2002 2.99985 45.7002C5.39985 55.5002 12.4998 80.2002 26.9998 98.1002C40.6998 114.9 55.9998 123.1 66.4998 127.1C66.4998 127 66.4998 127 66.5998 127Z" fill="#FEB0AD"/>
<path opacity="0.85" d="M70.9999 158.8C73.4999 159.1 75.9999 159.2 78.6999 159.2C79.0999 159.2 79.4999 158.8 79.4999 158.3C79.4999 157.8 79.1999 157.4 78.7999 157.4C64.7999 157.4 53.3999 153.4 45.0999 145.5C39.1999 140 36.3999 134.3 31.7999 124.8C29.4999 120 26.8999 114.6 23.1999 107.9C17.1999 96.9 10.5999 86.4 3.49991 76.6C3.19991 76.2 2.79994 76.2 2.39994 76.5C2.09994 76.8 1.9999 77.4 2.2999 77.7C9.2999 87.5 15.8999 97.9 21.8999 108.8C25.4999 115.5 28.1999 120.9 30.4999 125.6C34.9999 134.9 37.9999 141.1 44.0999 146.8C50.9999 153.6 60.0999 157.6 70.9999 158.8Z" fill="#FEB0AD"/>
<path opacity="0.85" d="M73.2999 144.7C73.6999 144.7 74.0999 144.4 74.0999 143.9C74.1999 143.4 73.9 143 73.4 142.9C63.4 141.4 54.4999 137.7 46.9999 131.9C41.9999 128 37.1999 123 20.1999 94.5L18.4 91.5C12.4 81.4 6.19996 71 2.39996 61.6C2.19996 61.2 1.79996 61 1.39996 61.2C0.999956 61.4 0.899932 61.9001 0.999932 62.4001C4.79993 71.9001 11.0999 82.4 17.1999 92.5L18.9999 95.5C36.0999 124.3 41.0999 129.4 46.1999 133.4C53.9999 139.4 62.9999 143.2 73.2999 144.7Z" fill="#FEB0AD"/>
<path opacity="0.85" d="M48.0999 73.7C48.3999 73.7 48.6999 73.6 48.7999 73.3C48.9999 72.9 48.8999 72.3 48.5999 72.1C42.6999 67.8 37.6999 62.3 33.6999 55.7C26.9999 44.7 24.6999 33.4 24.0999 25.8C24.0999 25.3 23.6999 25 23.2999 25C22.8999 25.1 22.5999 25.5 22.5999 26C23.2999 33.8 25.5999 45.4 32.4999 56.7C36.5999 63.4 41.7999 69.1 47.7999 73.6C47.7999 73.7 47.9999 73.7 48.0999 73.7Z" fill="#FEB0AD"/>
<path opacity="0.85" d="M47.2999 72.1C47.3999 72.1 47.3999 72.1 47.2999 72.1C47.7999 72.1 48.0999 71.7001 48.0999 71.2001C48.0999 65.0001 46.9999 52.9001 39.9999 41.4001C34.6999 32.7001 28.0999 27.8 23.5999 25.2C23.1999 25 22.7999 25.2 22.5999 25.6C22.3999 26 22.6 26.6 22.9 26.8C27.3 29.3 33.6999 34.1 38.7999 42.5C45.5999 53.6 46.5999 65.3 46.5999 71.3C46.6999 71.7 46.8999 72 47.2999 72.1Z" fill="#FEB0AD"/>
<path opacity="0.85" d="M57.4 96.8998C57.8 96.8998 58.1 96.6998 58.2 96.2998C60.2 88.2998 61.7999 75.7998 58.0999 62.3998C54.4999 49.2998 47.8 41.6998 41.9 34.8998C34.9 26.8998 26.7 20.4998 17.5 15.7998C17.1 15.5998 16.7 15.7998 16.5 16.2998C16.3 16.6998 16.5 17.2998 16.9 17.4998C25.9 22.0998 33.9 28.3998 40.8 36.2998C46.6 42.8998 53.2 50.4998 56.7 63.0998C60.3 76.1998 58.7 88.1998 56.7 95.9998C56.6 96.4998 56.8 96.9998 57.2 97.0998C57.3 96.8998 57.4 96.8998 57.4 96.8998Z" fill="#FEB0AD"/>
<path opacity="0.85" d="M62.0999 110.6C62.3999 110.6 62.7 110.5 62.8 110.1C66.8 101.4 72.8999 84.0002 68.0999 64.5002C64.0999 48.1002 54.3 38.4002 46.4 30.7002C37 21.5002 26.1 14.7002 14 10.6002C13.6 10.5002 13.1999 10.7002 13.0999 11.2002C12.9999 11.7002 13.1999 12.2002 13.5999 12.3002C25.3999 16.3002 36.1 22.9002 45.4 32.0002C53.6 40.0002 62.8 49.1002 66.7 64.9002C71.3 83.8002 65.4 100.8 61.5 109.2C61.3 109.6 61.4 110.2 61.8 110.4C61.9 110.5 61.9999 110.6 62.0999 110.6Z" fill="#FEB0AD"/>
<path opacity="0.85" d="M67.7 127.9C67.9 127.9 68.1 127.9 68.2 127.7C75.4 121.1 84.1 110.3 85 95.9C85.8 82.5 79.6 70.9 70.2 53.2C67.7 48.5 65 43.9 62.2 39.6C61.9 39.2 61.5 39.1 61.1 39.4C60.8 39.7 60.7 40.3 61 40.6C63.8 44.9 66.5 49.5 69 54.1C78.2 71.4 84.3 82.9 83.5 95.7C82.6 109.4 74.2 119.9 67.3 126.2C67 126.5 66.9 127.1 67.2 127.4C67.3 127.8 67.5 127.9 67.7 127.9Z" fill="#FEB0AD"/>
<path opacity="0.85" d="M73.3 144.7C73.5 144.7 73.7001 144.7 73.9001 144.5C78.7001 139.5 90.1 125.5 92.2 103.2C94.4 79.6 84.9 62.5999 80.8 56.2999C80.5 55.8999 80.1 55.8 79.7 56.2C79.4 56.5 79.3 57.1 79.6 57.4C83.7 63.5 92.9 80.1 90.7 103C88.7 124.7 77.6001 138.3 72.9001 143.2C72.6001 143.5 72.6 144.1 72.8 144.4C73 144.6 73.1 144.7 73.3 144.7Z" fill="#FEB0AD"/>
<path opacity="0.85" d="M78.5998 159.2C78.7998 159.2 78.9998 159.2 79.0998 159C84.9998 153.7 92.9999 144.5 97.3999 130.7C102.5 114.9 100.5 100.9 99.1999 91.6001C97.8999 82.5001 95.4999 73.6002 91.9999 65.2002C91.7999 64.8002 91.3999 64.6001 90.9999 64.8001C90.5999 65.0001 90.4999 65.5001 90.6999 66.0001C94.0999 74.2001 96.4999 82.9002 97.6999 91.9002C98.9999 101 100.9 114.7 95.9999 130.1C91.6999 143.6 83.8999 152.5 78.1999 157.6C77.8999 157.9 77.7998 158.4 78.0998 158.8C78.1998 159.1 78.3998 159.2 78.5998 159.2Z" fill="#FEB0AD"/>
<path opacity="0.85" d="M87.0999 180.5C87.1999 180.5 87.3999 180.5 87.4999 180.4C93.0999 177.3 107.1 167.8 114.7 147.9C121.5 130.4 119.9 114.2 118.4 106.1C118.3 105.6 117.9 105.3 117.5 105.4C117.1 105.5 116.8 106 116.9 106.5C118.4 114.4 119.9 130.2 113.3 147.2C105.8 166.5 92.2999 175.8 86.7999 178.8C86.3999 179 86.3 179.5 86.4 180C86.6 180.3 86.8999 180.5 87.0999 180.5Z" fill="#FEB0AD"/>
<path opacity="0.85" d="M84.0999 169.2C84.1999 169.2 84.3999 169.2 84.4999 169.1C98.7999 161.1 107.2 151.3 109.5 140C110.6 134.7 110.1 130.7 108.8 121.1C108.3 117.2 107.7 112.2 107 105.9C106 96.9002 105.2 87.7002 104.6 78.7002C104.6 78.2002 104.2 77.8002 103.8 77.9002C103.4 77.9002 103.1 78.4002 103.1 78.8002C103.7 87.8002 104.5 97.0001 105.5 106.1C106.2 112.5 106.8 117.4 107.3 121.3C108.5 130.7 109 134.6 108 139.5C105.8 150.3 97.5999 159.7 83.7999 167.4C83.3999 167.6 83.3 168.1 83.4 168.6C83.7 168.9 83.8999 169.1 84.0999 169.2Z" fill="#FEB0AD"/>
</g>
</g>
</g>
</svg>
