<svg width="162" height="419" viewBox="0 0 162 419" fill="none" xmlns="http://www.w3.org/2000/svg">
<path d="M160 418.9C160.1 418.9 160.1 418.9 160.2 418.9C161.2 418.8 161.9 418 161.8 417C161.7 416.2 153.3 341.4 146.4 300C144.1 286.2 141.7 271 139.2 254.8C134.1 222.2 128.8 188.5 123.5 162.5C115.8 124.1 99.1999 70.7002 99.0999 70.1002C98.7999 69.2002 97.7999 68.7002 96.7999 68.9002C95.7999 69.2002 95.2999 70.1002 95.5999 71.0002C95.7999 71.5002 112.2 124.8 119.9 163C125.1 188.9 130.4 222.6 135.5 255.1C138 271.2 140.4 286.5 142.7 300.3C149.6 341.6 158 416.4 158.1 417.1C158.3 418.3 159.1 418.9 160 418.9Z" fill="#B4D462"/>
<path opacity="0.92" d="M97.3 70.4C103.4 70.3 130.1 78.8 129.3 89.8C128.5 100.8 113.6 122.2 88.8 115.1C63.9 108 49.2 94.7 35.2 76.7C21.2 58.7 2.9 41.7 6 26.7C7.9 17.4 0 14.2 0 14.2C0 14.2 7.20001 16.9 20.2 13.2C32.4 9.69998 48.7 10.8 61.7 14.9C83.2 21.6 96.2 26 112.4 38.7C128.6 51.3 142.6 55.5 140.7 59.5C136.5 68.6 109.6 68.2999 100.9 66.0999C92.2 63.6999 94.6 70.5 97.3 70.4Z" fill="url(#paint0_linear)"/>
<path d="M91.7 68.7999C92 68.7999 92.2999 68.5999 92.2999 68.3999C92.3999 68.0999 92.2 67.6998 91.9 67.5998C83.7 65.0998 75.5 61.9999 67.7 58.3999C61.2 55.3999 54.6999 51.9999 48.4999 48.6999L33.5999 40.7998C30.2999 39.0998 26.8999 37.2999 23.9999 34.9999C21.0999 32.6999 18.1999 29.4999 15.2999 25.9999C11.7999 21.9999 8.19996 17.7998 4.39996 15.2998C4.09996 15.0998 3.69996 15.1999 3.39996 15.4999C3.19996 15.7999 3.29992 16.1999 3.59992 16.3999C7.29992 18.7999 10.8 22.8999 14.2 26.8999C17.1 30.2999 20.0999 33.6998 23.0999 36.0998C26.0999 38.3998 29.6 40.2999 32.9 41.9999L47.7999 49.8999C53.9999 53.1999 60.4999 56.5998 67.0999 59.5998C74.8999 63.1998 83.1 66.2999 91.4 68.8999C91.5 68.6999 91.6 68.7999 91.7 68.7999Z" fill="#FFD9DC"/>
<path d="M65.1 58.4002C65.5 58.4002 65.8 58.1001 65.8 57.7001C65 49.0001 61 44.9001 56 39.7001L54.6 38.3001C51 34.5001 41.8 28.9002 36.7 27.4002C31.1 25.7002 21.5 24.4001 14.1 25.1001C13.7 25.1001 13.5 25.5001 13.5 25.8001C13.5 26.2001 13.9 26.4002 14.3 26.4002C21.5 25.6002 30.8 26.9001 36.3 28.6001C41.1 30.1001 50.2 35.6001 53.6 39.1001L55 40.6001C60 45.8001 63.7 49.6002 64.4 57.9002C64.4 58.2002 64.7 58.4002 65.1 58.4002Z" fill="#FFD9DC"/>
<path d="M85.2 66.6C85.3 66.6 85.3999 66.6 85.4999 66.5C85.7999 66.3 85.9999 66 85.7999 65.6C79.5999 53.9 72.7 41.7 63.7 32.6C55.8 24.6 41.4999 14.6 8.79993 19.1C8.39993 19.2 8.19995 19.5 8.19995 19.8C8.29995 20.1 8.59994 20.4 8.99994 20.3C41.0999 15.9 55 25.6001 62.7 33.4001C71.6 42.4001 78.3999 54.5 84.5999 66.1C84.6999 66.5 84.9 66.6 85.2 66.6Z" fill="#FFD9DC"/>
<path d="M78.0999 76.6999C83.1999 76.6999 88.2999 75.7999 92.9999 74.1999C93.3999 74.0999 93.4999 73.6999 93.3999 73.3999C93.2999 73.0999 92.8999 72.8999 92.4999 72.9999C83.4999 76.0999 73.1999 76.1999 64.0999 73.2999C59.4999 71.7999 54.8999 69.4999 49.0999 65.7999C36.4999 57.6999 27.8999 46.9999 25.4999 36.2999C25.3999 35.9999 25.0999 35.6999 24.6999 35.7999C24.2999 35.8999 24.0999 36.1999 24.1999 36.5999C26.6999 47.5999 35.4999 58.6999 48.3999 66.8999C52.3999 69.3999 57.6999 72.5999 63.6999 74.5999C68.1999 75.9999 73.0999 76.6999 78.0999 76.6999Z" fill="#FFD9DC"/>
<path d="M71.4 64.3001C73.5 64.3001 75.3 64.0001 76.7 63.5001C77.1 63.4001 77.1999 63.0001 77.0999 62.7001C76.9999 62.4001 76.6 62.2001 76.2 62.3001C71.6 63.9001 62.4 62.6001 54.4 59.1001C49.1 56.8001 39.7 51.6002 36.2 42.4002C36.1 42.1002 35.6999 41.9001 35.2999 42.0001C34.8999 42.1001 34.8 42.5001 34.9 42.8001C38.5 52.4001 48.2999 57.8001 53.7999 60.2001C59.7999 62.9001 66.3 64.3001 71.4 64.3001Z" fill="#FFD9DC"/>
<path d="M93.2 103.7C96 103.7 98.7 103.4 100.8 102.7C106.8 100.7 110.7 96.5002 112.3 90.3002C114.3 82.6002 110.4 76.3003 100.5 70.9003C100.2 70.7003 99.8 70.8002 99.6 71.1002C99.4 71.4002 99.5 71.8002 99.9 72.0002C112.3 78.7002 112.2 85.5003 111.1 89.9003C109.6 95.7003 106 99.6003 100.5 101.4C95 103.2 85.2 102.2 78.8 100.1C71.7 97.8002 62.3 92.5003 53.8 85.9003C42.2 77.0003 26.3 59.2002 13.5 45.0002C11.8 43.1002 10.2 41.3002 8.59997 39.6002C8.39997 39.3002 7.89997 39.3002 7.59997 39.5002C7.29997 39.7002 7.29999 40.1003 7.49999 40.4003C9.09999 42.1003 10.7 43.9002 12.3 45.8002C25.1 60.1002 41.1 77.9003 52.8 86.9003C61.5 93.6003 71 99.0003 78.2 101.4C82.4 102.8 88.1 103.8 93.2 103.7Z" fill="#FFD9DC"/>
<path d="M98.1999 66.6002C98.2999 66.6002 98.2999 66.6002 98.3999 66.6002C100.8 65.8002 104.4 65.1003 108.3 64.4003C116.1 62.9003 124.1 61.3002 125.7 58.5002C128.1 54.3002 124.4 51.1002 120.1 47.5002L119.9 47.3002C112.9 41.4002 107 37.6003 99.6999 32.9003L96.2998 30.7002C94.1998 29.4002 89.7999 27.1003 85.4999 24.9003C81.1999 22.7003 76.7998 20.4002 74.7998 19.2002C74.4998 19.0002 74.0998 19.1003 73.7998 19.4003C73.5998 19.7003 73.6999 20.1002 73.9999 20.3002C75.9999 21.6002 80.4998 23.9002 84.7998 26.1002C89.0998 28.3002 93.4999 30.6003 95.4999 31.9003L98.8999 34.1002C106.2 38.8002 112 42.5003 119 48.4003L119.2 48.6002C123.8 52.5002 126.3 54.8002 124.5 58.0002C123.2 60.3002 114.8 61.9002 108.1 63.3002C104.2 64.1002 100.6 64.8002 98.0998 65.6002C97.6998 65.7002 97.5999 66.1003 97.6999 66.4003C97.5999 66.4003 97.8999 66.6002 98.1999 66.6002Z" fill="#FFD9DC"/>
<path d="M91.0999 61.5001C91.1999 61.5001 91.3999 61.5001 91.4999 61.4001C92.4999 60.7001 93.5999 60.1001 94.7999 59.4001C98.3999 57.5001 102.4 55.2001 102.4 51.4001C102.4 46.8001 98.9999 43.4001 96.9999 41.4001C94.9999 39.4001 91.5999 37.1 88.4999 35.1C87.3999 34.3 86.3 33.6001 85.4 33.0001C83.1 31.3001 80.9999 30.2001 79.0999 29.2001C77.0999 28.1001 75.0999 27.0001 72.7999 25.4001C68.2999 22.2001 54.3999 14.9 46.4999 11.1C46.1999 10.9 45.6999 11.1001 45.5999 11.4001C45.3999 11.7001 45.6 12.1 45.9 12.3C53.8 16.1 67.5999 23.3001 71.9999 26.5001C74.3999 28.2001 76.4 29.3001 78.4 30.4001C80.3 31.4001 82.2999 32.5 84.5999 34.1C85.4999 34.7 86.4999 35.4001 87.6999 36.2001C90.5999 38.1001 94.0999 40.5 95.9999 42.3C97.9999 44.3 101.1 47.4001 101.1 51.5001C101.1 54.6001 97.5999 56.5001 94.1999 58.4001C92.9999 59.1001 91.7999 59.7001 90.6999 60.4001C90.3999 60.6001 90.2999 61 90.5999 61.3C90.6999 61.4 90.8999 61.5001 91.0999 61.5001Z" fill="#FFD9DC"/>
<path d="M101.2 67.3003C101.9 69.6003 102.8 70.1003 99 72.2003C95.1 74.3003 92.2 73.6003 91.6 70.5003C90.9 67.4003 80.9 43.1002 76.8 35.1002C72.7 27.1002 54.6 3.60025 57.7 1.10025C60.8 -1.39975 81.4 28.3003 85.2 33.5003C88.8 38.7003 100.4 65.1003 101.2 67.3003Z" fill="url(#paint1_linear)"/>
<defs>
<linearGradient id="paint0_linear" x1="124.354" y1="92.7083" x2="6.60326" y2="11.3996" gradientUnits="userSpaceOnUse">
<stop stop-color="#F57887"/>
<stop offset="1" stop-color="#FEB0AD"/>
</linearGradient>
<linearGradient id="paint1_linear" x1="65.2822" y1="3.63871" x2="91.3783" y2="71.5458" gradientUnits="userSpaceOnUse">
<stop stop-color="#B4D462"/>
<stop offset="0.136" stop-color="#B2A26B"/>
<stop offset="0.2722" stop-color="#B17872"/>
<stop offset="0.4113" stop-color="#AF5578"/>
<stop offset="0.5518" stop-color="#AE3A7D"/>
<stop offset="0.694" stop-color="#AE2780"/>
<stop offset="0.8393" stop-color="#AD1C82"/>
<stop offset="0.9919" stop-color="#AD1883"/>
</linearGradient>
</defs>
</svg>
