<svg width="206" height="420" viewBox="0 0 206 420" fill="none" xmlns="http://www.w3.org/2000/svg">
<path opacity="0.92" d="M89.1999 139.2C88.7999 150.8 88.5999 162.4 88.4999 174C88.4999 185.6 88.6999 197.2 89.4999 208.7C89.8999 214.5 90.5999 220.2 91.2999 226C91.8999 231.8 92.4999 237.5 93.2999 243.3C94.7999 254.8 96.2999 266.3 97.5999 277.8C98.2999 283.6 98.7999 289.4 99.2999 295.2C99.7999 301 99.8999 306.9 99.9999 312.7L100.5 347.5L101.5 417.1C101.5 418.3 100.6 419.2 99.4999 419.2C98.3999 419.2 97.3999 418.3 97.3999 417.1L97.2999 347.5V312.7C97.4999 301.1 96.4999 289.7 95.3999 278.1C94.1999 266.6 92.7999 255.1 91.3999 243.5C90.6999 237.7 89.8999 232 89.1999 226.2C88.4999 220.4 87.8999 214.7 87.4999 208.8C86.7999 197.2 86.6999 185.6 86.7999 173.9C86.8999 162.3 87.2999 150.7 87.8999 139.1C87.8999 138.8 88.1999 138.5 88.5999 138.5C88.9999 138.6 89.1999 138.8 89.1999 139.2Z" fill="url(#paint0_linear)"/>
<path d="M205.4 168.9C200.2 171.1 195.2 173.7 189.9 175.9C188.6 176.5 187.2 177 185.7 177.5C184.2 178 182.7 178.3 181.3 178.7C178.5 179.4 175.7 180.1 173 180.9C167.6 182.6 162.3 184.4 157.1 185.7C154.5 186.4 152 186.9 149.5 187.6C147 188.3 144.6 189 142.4 189.8C141.3 190.2 140.2 190.6 139.2 191.1C138.7 191.3 138.1 191.6 137.8 191.8L137.2 192.1L136.5 192.5C134.7 193.5 132.7 194.9 130.7 196.4C126.6 199.4 122.5 202.9 118.4 206.5C110.3 213.8 102 221.3 91.8 227.6C91.5 227.8 91 227.7 90.9 227.4C90.8 227.2 90.8 227 90.8 226.9C91.6 223.9 92.6 221.2 93.8 218.5C95 215.8 96.3 213.2 97.7 210.6C100.5 205.5 103.8 200.7 107.4 196.2C111 191.6 114.9 187.1 119.4 182.9C121.7 180.8 124.2 178.8 127.2 176.9C127.6 176.7 128 176.4 128.4 176.2L129.7 175.5C130.6 175 131.3 174.8 132.1 174.4C133.7 173.8 135.2 173.2 136.7 172.7C139.8 171.8 142.8 171.1 145.8 170.6C148.8 170.1 151.8 169.7 154.8 169.6C160.7 169.3 166.6 170.2 172.4 171.2C175.3 171.7 178.1 172.2 180.9 172.5C182.3 172.7 183.6 172.8 184.8 172.8C186.1 172.7 187.4 172.6 188.8 172.4C194.2 171.5 199.7 170 204.8 167.8C205.1 167.7 205.5 167.8 205.6 168.1C205.9 168.4 205.7 168.7 205.4 168.9Z" fill="#30547B"/>
<path d="M0.400056 170.2C2.90006 168.9 5.60006 168.6 8.30006 168.9C9.60006 169.1 11.0001 169.4 12.2001 169.8C13.5001 170.2 14.7001 170.7 15.9001 171.1C20.7001 173.1 25.4001 175.4 30.0001 178.1C32.3001 179.4 34.5001 180.9 36.7001 182.6C37.8001 183.4 38.9001 184.3 39.9001 185.3L41.4001 186.8L42.8001 188.2C46.5001 191.9 50.3001 195.4 54.2001 198.7L60.0001 203.7C61.9001 205.4 63.7001 207.1 65.5001 208.8C67.2001 210.6 68.9001 212.3 70.5001 214.2L72.9001 217L75.1001 219.6C78.0001 223.1 81.1001 226.9 84.2001 230.9C85.7001 232.9 87.3001 235 88.8001 237.2C90.3001 239.4 91.8001 241.7 93.2001 244.3C93.4001 244.7 93.3001 245.1 92.9001 245.3C92.8001 245.4 92.7001 245.4 92.6001 245.4C89.6001 245.4 86.8001 244.9 84.1001 244.3C81.4001 243.7 78.7001 242.8 76.2001 241.7C71.1001 239.6 66.4001 236.8 62.0001 233.2C60.9001 232.3 59.9001 231.3 58.8001 230.4C57.9001 229.5 56.9001 228.5 56.0001 227.5C54.2001 225.5 52.5001 223.5 51.0001 221.3C47.9001 217 45.4001 212.3 43.1001 207.6C40.7001 202.9 38.4001 198.3 35.7001 194L34.7001 192.4L33.8001 191C33.1001 190.1 32.5001 189.1 31.7001 188.2C30.2001 186.4 28.5001 184.6 26.7001 182.9C23.1001 179.5 19.1001 176.4 14.9001 173.7C12.8001 172.4 10.6001 171 8.30006 170.4C6.00006 169.8 3.40006 170 1.40006 171.2H1.30006C1.00006 171.4 0.600056 171.3 0.400056 171C5.6386e-05 170.8 0.100056 170.4 0.400056 170.2C0.400056 170.2 0.400056 170.3 0.400056 170.2Z" fill="#30547B"/>
<path d="M88.1001 209.3C86.7001 205.3 84.4001 201.6 81.9001 198.1C80.7001 196.4 79.3001 194.7 77.8001 193.2C76.3001 191.7 74.6001 190.2 73.0001 188.9C71.4001 187.5 69.8001 186.2 68.3001 184.8C67.6001 184.2 66.9001 183.4 66.2001 182.8C65.5001 182.2 65.0001 181.5 64.4001 180.8C61.9001 178.1 59.1001 175.4 56.3001 172.5C53.4001 169.7 50.5001 166.7 47.4001 163.7C44.3001 160.7 41.1001 157.8 37.8001 154.6C37.4001 154.2 37.0001 153.8 36.6001 153.4C36.2001 152.9 35.8001 152.6 35.4001 152.1L34.8001 151.3C34.6001 151 34.4001 150.8 34.3001 150.6C34.0001 150.2 33.7001 149.8 33.4001 149.4C32.2001 147.8 30.8001 146.1 29.5001 144.5C26.7001 141.3 23.8001 138.2 20.7001 135.2C20.5001 135 20.4001 134.6 20.7001 134.3C20.9001 134.1 21.2001 134.1 21.5001 134.2C25.1001 136.6 28.6001 139 32.1001 141.6C33.8001 142.9 35.6001 144.3 37.2001 145.8C37.6001 146.2 38.0001 146.6 38.5001 146.9C38.7001 147.1 38.9001 147.2 39.1001 147.4L39.6001 147.8C39.9001 148.1 40.4001 148.3 40.8001 148.6C41.2001 148.9 41.6001 149.1 42.1001 149.4C49.1001 153.5 57.6001 156.5 65.2001 161.4C69.0001 163.9 72.7001 166.8 75.9001 170.5C79.3001 174.3 81.2001 178.5 82.4001 183.1C83.6001 187.7 84.4001 192.2 85.7001 196.4C86.9001 200.6 88.1001 204.8 89.5001 208.9C89.6001 209.2 89.4001 209.6 89.1001 209.7C88.6001 209.8 88.2001 209.6 88.1001 209.3Z" fill="#30547B"/>
<path d="M87.2001 190.9C88.8001 185.4 90.2001 179.9 91.7001 174.3L93.9001 165.9C94.7001 163.1 95.4001 160.3 96.1001 157.3C97.4001 151.5 98.2001 145.2 100.7 139.3C101 138.6 101.3 137.8 101.6 137.1C102 136.4 102.3 135.7 102.8 135C103.6 133.6 104.4 132.2 105.5 130.9C106 130.2 106.6 129.6 107.1 128.9C107.6 128.3 108.2 127.6 108.9 127C109.6 126.4 110.2 125.8 110.9 125.2C111.6 124.6 112.3 123.9 112.9 123.6C117.8 120.1 123.3 117.1 129.5 115C135.6 112.9 142.5 111.7 148.8 112C150.4 112 151.9 112.2 153.4 112.3C154.2 112.4 154.9 112.5 155.6 112.6L157.9 112.9C160.9 113.5 163.7 114.2 166.5 115.1C172.1 116.8 177.4 118.8 182.7 120.8C183 120.9 183.2 121.3 183.1 121.6C183 121.9 182.7 122.1 182.4 122C177 120.6 171.4 119.6 165.8 119.1C163 118.9 160.3 118.8 157.6 119L155.6 119.2C154.9 119.3 154.2 119.4 153.6 119.5C152.3 119.7 151 120 149.7 120.4C144.7 121.8 140.8 124.9 137.2 128.4C133.6 132 130.1 136 126.2 139.7C125.7 140.2 125.4 140.5 125 140.9C124.7 141.3 124.3 141.7 124 142C123.6 142.3 123.3 142.8 122.9 143.2C122.5 143.6 122.2 144.1 121.8 144.5C121 145.3 120.2 146.3 119.4 147.1C119 147.5 118.5 148 118.1 148.4C117.7 148.9 117.2 149.3 116.7 149.8C115.8 150.7 114.7 151.6 113.8 152.5C112.8 153.4 111.8 154.4 110.7 155.3C108.7 157.3 106.6 159.3 104.8 161.5C102.9 163.7 101.3 166 99.8001 168.4L97.6001 172C96.9001 173.2 96.2001 174.5 95.5001 175.7C92.8001 180.7 90.3001 185.8 88.4001 191.2C88.3001 191.5 87.9001 191.7 87.6001 191.6C87.2001 191.6 87.1001 191.2 87.2001 190.9Z" fill="#30547B"/>
<path d="M87.6001 143.1C87.6001 138.4 87.8001 133.7 88.0001 129C88.1001 124.2 88.0001 119.3 88.5001 114.4C89.0001 109.5 90.5001 104.8 92.8001 100.4C95.2001 95.6 98.4001 91.3001 102 87.7001C109.1 80.4001 117.6 75.5001 125.7 71.1L128.7 69.5001L130.1 68.7C130.6 68.4 130.9 68.2001 131.3 67.9001C133 66.4001 134.8 64.9001 136.5 63.4001C139.9 60.4001 143.3 57.3 146.7 54.2C147 54 147.4 54 147.6 54.2C147.8 54.4 147.8 54.8001 147.6 55.0001C144.9 58.7001 142.2 62.5001 139.5 66.3001C138.2 68.2001 136.8 70.1 135.5 72.1C135.1 72.6 134.6 73.2 134.1 73.6C133.7 74 133.2 74.5 132.8 74.9L130.3 77.4C123.7 83.9 117.9 90.5001 113.1 97.2001C110.8 100.6 108.7 103.9 107.2 107.4C105.6 111.2 103.7 115.1 101.2 118.8C98.7001 122.6 96.0001 126.4 93.9001 130.5C92.8001 132.6 91.9001 134.7 91.0001 136.8C90.1001 138.9 89.3001 141.1 88.6001 143.3C88.5001 143.6 88.1001 143.8 87.8001 143.7C87.7001 143.6 87.6001 143.3 87.6001 143.1Z" fill="#30547B"/>
<path d="M87.0001 166.8C82.0001 163.2 77.7001 159.2 73.5001 154.8C69.4001 150.4 65.5001 145.7 62.3001 140.2C61.5001 138.8 60.7001 137.4 60.0001 136C59.3001 134.5 58.7001 133 58.1001 131.5C57.5001 130 57.0001 128.4 56.6001 126.7L56.1001 124.1C56.0001 123.3 55.8001 122.4 55.7001 121.6C54.9001 115 55.5001 109 56.2001 103.1C57.0001 97.1999 57.8001 91.3999 58.2001 85.6999C58.6001 79.8999 58.5001 74.2999 57.8001 68.5999C57.5001 65.6999 57.1001 62.7999 56.7001 59.9999C56.3001 57.0999 55.8001 54.2999 55.3001 51.3999C54.3001 45.6999 53.1001 39.8999 51.7001 34.2999C51.6001 33.9999 51.8001 33.5999 52.1001 33.4999C52.4001 33.3999 52.7001 33.5999 52.8001 33.8999C56.5001 44.9999 59.7001 56.2999 62.5001 67.7999C64.0001 73.5999 64.7001 79.5999 65.5001 85.4999L67.8001 103.1L68.9001 111.6C69.2001 114.4 69.6001 117 70.0001 119.5C70.8001 124.2 72.3001 129.1 74.4001 134C76.4001 138.9 78.9001 144 81.3001 149.3C83.7001 154.6 86.1001 160.1 87.8001 166.1C87.9001 166.5 87.7001 166.8 87.3001 166.9C87.4001 166.9 87.2001 166.9 87.0001 166.8Z" fill="#30547B"/>
<path d="M97.1999 293.3C94.4999 292.4 91.9999 291.6 89.4999 290.9C86.9999 290.2 84.5999 289.5 82.1999 288.9C79.6999 288.4 77.1999 288.1 74.8999 287.5C72.4999 287 70.3999 286.1 68.2999 285C67.2999 284.5 66.1999 283.9 65.1999 283.4C64.1999 282.9 63.0999 282.3 62.0999 281.7L60.3999 280.7L58.5999 279.6C57.3999 278.9 56.1999 278 55.0999 277.1C50.4999 273.7 46.4999 269.6 42.6999 265.5C40.7999 263.4 38.9999 261.4 37.2999 259.3C36.3999 258.3 35.4999 257.3 34.4999 256.3L31.6999 253.4C30.7999 252.4 29.8999 251.4 29.1999 250.2C28.3999 249.1 27.6999 247.9 27.0999 246.7C25.7999 244.3 24.6999 241.9 23.7999 239.4C22.7999 236.9 22.0999 234.6 20.9999 232.2C19.9999 229.9 18.7999 227.6 17.4999 225.4C14.9999 221 12.2999 216.7 9.19994 212.6C8.99994 212.3 8.99993 211.9 9.29993 211.7C9.59993 211.5 9.99994 211.5 10.1999 211.8C13.1999 215.9 16.5999 219.7 19.8999 223.6C21.5999 225.5 23.2999 227.5 25.0999 229.4L30.3999 235.2L35.4999 240.6C37.1999 242.4 38.7999 244.1 40.1999 246C40.9999 246.9 41.6999 247.9 42.4999 248.7C43.2999 249.6 44.0999 250.4 45.0999 251.2C45.9999 251.9 46.9999 252.6 47.9999 253.3C48.9999 253.9 49.9999 254.6 50.9999 255.1C55.0999 257.4 59.5999 258.9 63.9999 260.3C64.4999 260.5 65.0999 260.6 65.5999 260.8L67.1999 261.2L68.7999 261.7L70.4999 262.3C71.7999 262.8 73.0999 263.2 74.2999 263.7C75.5999 264.2 76.7999 264.8 77.9999 265.4C80.4999 266.6 82.7999 268.1 84.7999 270.2C86.7999 272.2 88.5999 274.6 90.2999 276.9C91.9999 279.3 93.6999 281.5 95.0999 284.1C96.4999 286.7 97.6999 289.4 98.1999 292.4C98.2999 292.8 97.9999 293.1 97.5999 293.2C97.4999 293.2 97.3999 293.2 97.2999 293.2L97.1999 293.3Z" fill="#30547B"/>
<path d="M97.1001 282C97.2001 279.2 97.7001 276.6 98.4001 274.1C98.7001 272.8 99.1001 271.6 99.5001 270.3C99.9001 269.1 100.4 267.8 100.9 266.6C102.9 261.8 104.8 256.7 107.6 251.7C108.3 250.5 109.1 249.2 109.9 248C110.8 246.8 111.7 245.7 112.6 244.5C113.1 243.9 113.6 243.4 114.2 242.9C114.7 242.4 115.4 241.8 115.6 241.5C116.2 240.8 116.9 240.1 117.6 239.5L119.6 237.6C120.3 237 120.9 236.3 121.6 235.7C123 234.4 124.3 233 125.8 231.5C128.8 228.5 132.1 224.9 136.3 221.2C138.4 219.4 140.7 217.5 143.2 215.9C145.9 214 148.7 212.7 151.3 211.8C153.9 210.9 156.5 210.1 159 209.5C161.5 208.9 164.2 209 166.8 208.8C168.1 208.7 169.3 208.6 170.5 208.4C171.7 208.2 172.9 208 174.1 207.8C176.5 207.3 178.9 206.8 181.2 206C181.5 205.9 181.9 206.1 182 206.4C182.1 206.7 181.9 207.1 181.6 207.2H181.5C179.1 207.6 176.8 208.4 174.6 209.4C172.4 210.4 170.2 211.4 168.2 213C166.2 214.5 164.5 216.4 162.6 217.8C160.7 219.2 158.9 220.7 157.4 222.2C155.9 223.8 154.7 225.3 154 226.9C153.1 228.7 152.3 230.7 151.5 232.7C149.9 236.8 148.2 241.5 145.4 246.3C142.6 251 138.8 255.8 134 259.5C132.8 260.4 131.6 261.2 130.3 262C129.6 262.4 129.3 262.6 128.8 262.8C128.4 263 128 263.2 127.5 263.4C126.6 263.8 125.7 264.3 124.8 264.7C123.9 265.2 122.9 265.6 121.9 266.1C117.9 268.1 113.8 270.6 110.1 273.6C106.4 276.6 102.6 279.7 98.1001 282.7C97.8001 282.9 97.4001 282.8 97.1001 282.5C97.1001 282.3 97.1001 282.2 97.1001 282Z" fill="#30547B"/>
<path d="M98.0001 330.4C92.9001 331.7 87.7001 332.1 82.2001 332.6C76.8001 333 70.9001 333.6 65.0001 332.4C63.5001 332.1 62.1001 331.7 60.6001 331.2C59.2001 330.7 57.7001 330 56.4001 329.2C55.1001 328.5 53.8001 327.7 52.7001 326.8C51.5001 325.9 50.4001 325 49.3001 324.1C44.9001 320.4 41.2001 316.3 38.0001 311.9C31.5001 303.2 27.3001 293.6 22.7001 284.9C18.0001 276 12.4001 267.6 7.10015 259.1C6.90015 258.8 7.00014 258.4 7.30014 258.2C7.50014 258 7.80015 258.1 8.00015 258.3C15.6001 264.9 22.9001 271.8 30.7001 278.5L42.0001 288.7C45.7001 292 49.3001 295.2 52.8001 298.2C56.3001 301.2 59.8001 304.1 63.2001 306.7C64.0001 307.4 64.9001 308 65.7001 308.5C66.5001 309.1 67.4001 309.7 68.2001 310.3C69.8001 311.5 71.2001 312.7 72.9001 314.1C76.2001 316.9 79.9001 320.4 84.2001 322.9C86.3001 324.2 88.6001 325.3 90.9001 326.3C93.2001 327.3 95.6001 328.3 98.0001 329.2C98.3001 329.3 98.5001 329.7 98.4001 330C98.3001 330.2 98.2001 330.4 98.0001 330.4Z" fill="#30547B"/>
<path d="M98.4002 320.2C100.5 315.1 103.2 310.8 106.1 306.6C109 302.5 112.2 298.7 115.7 295.2C119.2 291.7 122.8 288.4 127 285.4C131.3 282.2 135.5 279.9 140 277.8C148.9 273.7 158.6 271.5 168 268.8C172.7 267.4 177.2 265.8 181.7 263.9L188.5 261.2C189.6 260.8 190.8 260.3 191.9 259.9C192.5 259.7 193.1 259.5 193.7 259.3C194 259.2 194.3 259.1 194.6 259C194.8 259 194.9 258.9 195.1 258.9C195.3 258.9 195.4 258.8 195.7 258.8C196 258.8 196.3 259.1 196.2 259.5C196.2 259.8 195.9 260.1 195.5 260.1C195.5 260.1 195.3 260.1 195.2 260.1C195.1 260.1 194.9 260.2 194.8 260.2C194.5 260.3 194.3 260.4 194 260.5C193.5 260.7 192.9 261 192.4 261.2C191.4 261.8 190.3 262.3 189.4 263C187.4 264.3 185.6 265.8 183.7 267.4C180 270.5 176.2 273.7 172.6 277C165.3 283.6 158.3 290.8 150.7 296.3C146.9 299.1 143 301.6 139.3 303.8C135.5 306.1 131.4 308.5 127.3 310.7C123.1 312.9 118.7 315 114.1 316.8C109.5 318.6 104.7 320.2 99.3002 321.1C98.9002 321.2 98.5002 320.9 98.5002 320.5C98.3002 320.5 98.3002 320.4 98.4002 320.2Z" fill="#30547B"/>
<path d="M92.5001 0.69995C91.8001 6.69995 91.7001 12.7999 91.8001 18.9999C91.8001 25.0999 92.0001 31.3 92.1001 37.4C92.2001 43.6 92.3001 49.7 92.0001 56C91.8001 59.2 91.7001 61.9999 91.6001 64.9999C91.6001 67.8999 91.5001 70.7999 91.2001 73.5999C90.9001 76.3999 90.5001 79.2 90.0001 82.1C89.5001 85 89.0001 88 88.6001 91.1C88.2001 94.2 88.1001 97.2999 88.1001 100.4C88.1001 103.5 88.2001 106.6 88.2001 109.6C88.3001 121.8 88.2001 134 88.9001 146.1C88.9001 146.4 88.7001 146.7 88.3001 146.8C88.0001 146.8 87.7001 146.6 87.6001 146.2C87.4001 134 86.3001 121.9 84.6001 109.9C84.2001 106.9 83.7001 103.9 83.2001 100.9C82.6001 97.8999 81.7001 94.9999 80.7001 91.9999C79.7001 88.9999 78.6001 85.9999 77.8001 82.7999C77.0001 79.5999 76.6001 76.2999 76.6001 72.9999C76.5001 69.6999 77.1001 66.5 77.8001 63.4C78.5001 60.3 79.4001 57.2 80.1001 54.3C81.6001 48.5 83.2001 42.5999 84.6001 36.6999C86.1001 30.7999 87.5001 24.8 88.6001 18.8C89.8001 12.8 90.8001 6.79995 91.1001 0.69995C91.1001 0.39995 91.4001 0.0999478 91.7001 0.0999478C92.3001 -5.2223e-05 92.6001 0.29995 92.5001 0.69995C92.5001 0.59995 92.5001 0.59995 92.5001 0.69995Z" fill="#30547B"/>
<path d="M205.2 168.4C200 170.6 194.8 172.7 189.5 174.4C188.2 174.8 186.8 175.2 185.4 175.5C184 175.8 182.6 175.9 181.2 176.1L172.8 176.8C167.2 177.3 161.7 178 156.2 178.9C150.7 179.8 145.3 180.9 140.1 182.6C137.5 183.5 134.9 184.5 132.7 185.8C130.4 187.2 128.2 188.8 126 190.6C121.7 194.1 117.7 198 113.8 202C109.9 206.1 106.1 210.2 102.5 214.4C98.7999 218.6 95.0999 222.9 91.4999 227.2H91.3999V227.1C97.6999 217.7 104.7 208.9 112.3 200.5C116.1 196.3 120.1 192.3 124.4 188.6C126.6 186.8 128.8 185 131.4 183.5C133.9 182 136.6 180.9 139.3 180C150.2 176.5 161.6 175.6 172.8 175.3L181.2 175.1C182.6 175 184 175 185.3 174.8C186.7 174.6 188 174.2 189.4 173.9C194.8 172.4 200.1 170.5 205.2 168.3H205.3C205.2 168.3 205.2 168.3 205.2 168.4Z" fill="#FFF0A6"/>
<path d="M0.699951 170.7C2.99995 169.5 5.59995 169.2 8.19995 169.6C10.7 170.1 13.0999 171.2 15.2999 172.3C19.8999 174.6 24.2 177.2 28.4 180.2C32.5 183.2 36.3999 186.7 39.5999 190.7L49.3 202.6C52.5 206.5 55.7999 210.5 59.0999 214.3C62.3999 218.2 65.8 222 69.3 225.6C72.9 229.1 76.6999 232.5 80.5999 235.7C84.4999 238.9 88.6 241.9 92.8 244.9V245H92.7C88.1 242.7 83.7999 240 79.5999 237.1C75.3999 234.2 71.3999 231 67.5999 227.4C66.6999 226.5 65.7999 225.6 64.8999 224.7C63.9999 223.8 63.2 222.8 62.3 221.9C60.6 220 58.9 218 57.3 216.1C54.1 212.1 50.9 208.1 47.9 204C41.7 195.9 36.3 187 28 181.1C24 178 19.7 175.2 15.2 172.9C12.9 171.8 10.7 170.5 8.19995 170.1C5.69995 169.6 3.09995 169.9 0.89995 171.1H0.79995C0.69995 170.8 0.699951 170.7 0.699951 170.7Z" fill="#FFF0A6"/>
<path d="M88.6 209.1C85.6 201.1 81.7 193.4 76.9 186.5C75.7 184.7 74.5 183 73.2 181.4C71.9 179.7 70.6 178.1 69.2 176.6C66.4 173.5 63.3 170.7 60 168C56.7 165.3 53.3 162.8 49.9 160.3C46.5 157.8 42.9 155.4 39.6 152.7C38.8 152 38 151.3 37.2 150.5C36.4 149.7 35.8 148.9 35.1 148.1C33.7 146.5 32.2 145 30.7 143.5C27.6 140.6 24.4 137.7 21.2 135C21.2 135 21.1 134.9 21.2 134.9H21.3C24.7 137.5 28 140.3 31.1 143.1C32.7 144.5 34.2 146 35.7 147.6C36.4 148.4 37.2 149.2 37.9 149.9C38.7 150.6 39.5 151.3 40.3 151.9C43.7 154.4 47.3 156.7 50.9 159C54.5 161.3 58 163.7 61.5 166.3C64.9 168.9 68.2 171.8 71.1 175C74.1 178.3 76.4 181.9 78.5 185.7C80.6 189.5 82.4 193.4 84.2 197.3C86 201.2 87.5 205.2 89 209.2C89 209.3 89 209.3 88.9 209.3C88.7 209.2 88.6 209.2 88.6 209.1Z" fill="#FFF0A6"/>
<path d="M87.7 191.1C91.2 180.3 95.1 169.6 99.9 159.2C101 156.6 102.3 154 103.6 151.5C104.9 149 106.3 146.4 107.8 144C110.8 139.1 114.4 134.4 118.9 130.7C123.3 127.1 128 123.7 133 120.9C138 118.2 143.6 116.1 149.3 115.7C152.2 115.5 155 115.4 157.8 115.6C160.6 115.8 163.5 116.3 166.2 116.8C171.8 118 177.2 119.5 182.6 121.3C182.6 121.3 182.7 121.4 182.6 121.4C182.6 121.4 182.5 121.5 182.5 121.4C177.1 119.7 171.6 118.3 166.1 117.3C163.3 116.8 160.5 116.4 157.7 116.3C154.9 116.2 152.1 116.3 149.3 116.7C146.5 117.1 143.8 117.7 141.2 118.7C138.6 119.7 136.1 121 133.8 122.5C129 125.4 124.7 129 120.3 132.6C116.1 136.2 112.7 140.6 109.5 145.2C106.3 149.8 103.4 154.7 100.8 159.7C98.2 164.7 95.9 169.9 93.7 175.1C91.5 180.3 89.5 185.6 87.7 191.1C87.8 191.1 87.8 191.2 87.7 191.1Z" fill="#FFF0A6"/>
<path d="M88.1 143.1C88.7 138.5 89.6 134 90.5 129.5C91.5 125 92.5 120.5 93.9 116.1C95.2 111.7 96.9 107.3 98.9 103.2C101 99 103.7 95.1 106.7 91.6C112.8 84.5 120.2 78.9 127.6 73.6C129.4 72.3 131.4 71 133 69.5L137.7 64.5L147 54.5H147.1V54.6L138.1 65L133.6 70.2C131.9 71.9 130.1 73.2 128.3 74.7C121.1 80.3 114 86.1 108.3 93.1C105.4 96.6 102.9 100.3 101 104.3C99.1 108.4 97.4 112.6 95.7 116.8C92.4 125.3 89.8 134.1 88.1 143.1C88.1 143.2 88 143.2 88 143.2C88.1 143.2 88.1 143.2 88.1 143.1Z" fill="#FFF0A6"/>
<path d="M87.5 166.5C83.9 161.9 80.3 157.3 76.9 152.5C75.2 150.1 73.5 147.7 71.9 145.3C70.3 142.8 68.8 140.3 67.5 137.7C64.8 132.4 62.6 126.8 61.9 120.8C61 114.9 61.2 109 61.2 103.1C61.3 97.3 61.5 91.4 61.4 85.6C61.4 82.7 61.2 79.8 61 76.9C60.7 74 60.4 71.1 59.9 68.3C58 56.8 55.5 45.4 52.3 34.1C52.3 34 52.3 34 52.4 34C52.5 34 52.5 34 52.5 34.1C55.9 45.3 58.6 56.7 60.7 68.2C62.9 79.8 62.8 91.6 63.1 103.2C63.2 109 63.4 114.8 64.2 120.5C64.6 123.3 65.3 126 66.2 128.8C67.1 131.5 68.2 134.2 69.5 136.7C74.6 147 81.5 156.5 87.6 166.5V166.6C87.6 166.5 87.5 166.5 87.5 166.5Z" fill="#FFF0A6"/>
<path d="M97.5999 293C94.0999 289.3 89.9999 286.4 85.7999 283.7C81.4999 281.1 77.0999 278.7 72.5999 276.5L69.1999 274.8L65.7999 273.2C64.6999 272.7 63.4999 272.1 62.2999 271.5L60.5999 270.6L58.8999 269.7C54.3999 267.2 50.1999 264.3 46.2999 261C42.3999 257.7 38.7999 254.1 35.3999 250.2C32.0999 246.3 29.1999 242.1 26.5999 237.7C24.0999 233.3 21.3999 229 18.4999 224.8C15.5999 220.6 12.5999 216.5 9.59985 212.5V212.4H9.69985C12.7999 216.4 15.7999 220.5 18.7999 224.6C20.2999 226.7 21.7999 228.7 23.1999 230.8C24.6999 232.9 25.9999 235.1 27.2999 237.2C32.7999 245.7 39.0999 253.7 47.0999 259.8C50.9999 262.9 55.2999 265.5 59.7999 267.8L61.4999 268.7L63.1999 269.5L66.5999 271L70.0999 272.5L73.5999 274.1C78.1999 276.4 82.4999 279.1 86.5999 282.2C88.5999 283.8 90.5999 285.4 92.4999 287.1C94.3999 288.8 96.1999 290.7 97.5999 292.8C97.7999 293 97.7999 293 97.5999 293C97.6999 293 97.6999 293 97.5999 293Z" fill="#FFF0A6"/>
<path d="M97.5999 282.3C98.6999 280.1 99.8999 278 101.1 275.9C102.4 273.8 103.7 271.8 105 269.8C107.8 265.8 110.7 261.9 114 258.3C114.8 257.4 115.7 256.5 116.6 255.7C117.5 254.9 118.4 254 119.3 253.2C120.3 252.4 121.2 251.6 122.2 250.9C123.1 250.2 124.1 249.5 125 248.7L126.3 247.5L127.6 246.3C128.5 245.5 129.3 244.6 130.1 243.8C131.7 242 133.2 240.2 134.7 238.3C137.6 234.5 140.2 230.4 143.2 226.5C144.7 224.6 146.3 222.7 148.1 221C149.9 219.2 152 217.8 154.1 216.6C158.4 214.2 162.9 212.4 167.5 210.8C172.1 209.3 176.7 207.9 181.4 206.7H181.5V206.8C172.2 209.2 163 212.6 154.8 217.6C152.8 218.9 150.9 220.3 149.3 222C147.7 223.7 146.2 225.6 144.8 227.6C142 231.5 139.6 235.7 136.7 239.7C133.8 243.7 130.6 247.5 126.7 250.6C125.8 251.4 124.8 252.1 123.8 252.9L120.9 255C120 255.7 119.1 256.5 118.2 257.3L115.6 259.7C108.8 266.4 102.9 274.2 97.7999 282.4C97.6999 282.4 97.5999 282.4 97.5999 282.3C97.5999 282.3 97.5999 282.4 97.5999 282.3Z" fill="#FFF0A6"/>
<path d="M97.9999 329.9C92.9999 329.8 87.9999 329.2 83.0999 328.3C78.1999 327.4 73.2999 326.2 68.5999 324.3C66.1999 323.4 63.9999 322.2 61.7999 320.8C59.5999 319.5 57.5999 318 55.5999 316.4C51.6999 313.2 48.0999 309.6 44.6999 305.9C41.3999 302.1 38.1999 298.2 35.1999 294.2C32.1999 290.2 29.2999 286.1 26.2999 282.2C20.1999 274.3 13.8999 266.5 7.59985 258.8V258.7H7.69985C14.2999 266.2 20.8999 273.7 27.1999 281.4C33.5999 289.1 39.4999 297.2 46.2999 304.4C52.9999 311.6 60.5999 318.2 69.3999 322.3C78.2999 326.5 88.0999 328.8 97.9999 329.8C97.9999 329.7 98.0999 329.8 97.9999 329.9C97.9999 329.9 98.0999 329.8 97.9999 329.9Z" fill="#FFF0A6"/>
<path d="M98.7 320.7C105.8 314.3 113.2 308.2 120.7 302.2C124.5 299.3 128.3 296.4 132.3 293.7C134.3 292.3 136.3 291 138.4 289.8C140.4 288.5 142.5 287.3 144.6 286.2C152.9 281.5 161.4 277.1 169.9 272.6C174.1 270.3 178.3 268 182.4 265.6C184.5 264.4 186.6 263.2 188.7 262.2C189.8 261.7 190.9 261.2 192 260.7C193.1 260.3 194.2 259.8 195.4 259.6C195.4 259.6 195.5 259.6 195.5 259.7C195.5 259.7 195.5 259.8 195.4 259.8C194.3 259.9 193.1 260.4 192 260.9C190.9 261.4 189.8 261.9 188.8 262.5C186.7 263.6 184.6 264.9 182.6 266.1C178.6 268.7 174.5 271.2 170.4 273.6L145.8 288.3C141.7 290.8 137.6 293.2 133.7 295.8C129.8 298.4 125.9 301.2 122 304L98.8 320.8C98.8 320.8 98.8 320.8 98.7 320.7Z" fill="#FFF0A6"/>
<path d="M91.9999 0.599902L90.5999 18.7999C90.0999 24.8999 89.6999 30.8999 89.0999 36.9999C88.4999 43.0999 87.8999 49.0999 87.0999 55.1999C86.6999 58.1999 86.2999 61.1999 85.8999 64.1999C85.5999 67.1999 85.2999 70.1999 85.0999 73.1999C84.6999 79.1999 84.8999 85.1999 85.2999 91.2999C85.6999 97.3999 86.2999 103.4 86.6999 109.5C87.3999 121.7 87.8999 133.8 88.2999 146C88.2999 146.1 88.2999 146.1 88.1999 146.1C88.0999 146.1 88.0999 146.1 88.0999 146C87.6999 133.8 87.0999 121.7 85.9999 109.6C85.7999 106.6 85.4999 103.5 85.0999 100.5C84.6999 97.4999 84.2999 94.4999 83.8999 91.4999C83.4999 88.4999 82.9999 85.4999 82.7999 82.3999C82.5999 79.2999 82.3999 76.1999 82.5999 73.1999C82.7999 66.9999 83.8999 60.9999 84.9999 54.9999C85.9999 48.9999 86.8999 42.9999 87.6999 36.9999C89.2999 24.9999 90.7999 12.8999 91.6999 0.699905C91.6999 0.599905 91.7999 0.599902 91.7999 0.599902C91.9999 0.499902 91.9999 0.499902 91.9999 0.599902Z" fill="#FFF0A6"/>
<defs>
<linearGradient id="paint0_linear" x1="87.177" y1="278.852" x2="101.05" y2="278.797" gradientUnits="userSpaceOnUse">
<stop stop-color="#F57887"/>
<stop offset="1" stop-color="#FEB0AD"/>
</linearGradient>
</defs>
</svg>
