<svg width="213" height="235" viewBox="0 0 213 235" fill="none" xmlns="http://www.w3.org/2000/svg">
<path d="M145.6 187.2C140.4 180.7 147.8 181.5 164 181.1C180.2 180.7 193.3 172.7 193.3 172.7C193.3 172.7 207.4 150.3 207 133.3C206.6 116.3 201.8 108.5 201.8 108.5C201.8 108.5 191.6 127 178.2 137C165.8 146.3 145.7 154.1 138.6 147.8C131.6 141.5 158.1 138.7 172.4 123.4C186.7 108.1 196.6 93.6 196.6 93.6C196.6 93.6 193.3 72.5001 185.6 60.4001C177.9 48.3001 171.9 39.6 171.9 39.6C171.9 39.6 166.9 67.1001 163.3 77.9001C159.7 88.7001 146 98.3 137.6 93.6C129.3 88.8 146 81.6001 150.9 63.5001C156.4 43.4001 155 42.1 156.1 31.6C157 23.3 137.8 23.9001 127.2 21.4001C116.6 18.9001 103.9 4.80005 103.9 4.80005C103.9 4.80005 102.3 8.80005 98.7 12.3C95.1 15.8 82.7 19.0001 72.7 26.7001C63.7 33.6001 57.6 38.9001 57.6 38.9001C57.6 38.9001 52.8 58.5001 65.3 71.0001C75.7 81.3001 85.5 87.7001 85.4 91.2001C85.1 101.2 79.7 102.6 72.2 98.6C66.4 95.5 54.9 84 48.9 76.3C43.9 69.8 41.2 51.3 41.2 51.3C41.2 51.3 32 63.7 30 68.1C28 72.5 24.7 79.0001 24.7 79.0001C24.7 79.0001 33.2 107.4 46 114.7C76.8 132.4 92.2 125.7 86.3 138.7C80.4 151.7 63.9 138.7 47.1 128.3C30.3 117.9 12.7 87.5001 12.7 87.5001C12.7 87.5001 10.7 97.6001 6.99997 102.2C3.29997 106.8 3.89997 111 1.69997 117C-0.500032 123 9.79997 132.7 21.3 143.8C32.7 155 88.8 156.9 80.9 173.1C73.1 189.3 46.4 173.7 32.8 164C19.2 154.3 4.49997 140.4 4.49997 140.4C4.49997 140.4 0.599968 160.7 3.69997 173.7C6.79997 186.7 14.5 190.7 14.5 190.7C14.5 190.7 29.2 195.4 47.9 197.2C64.6 198.8 79 195.2 80.8 201.5C84.7 214.9 31.2 199.8 31.2 199.8C31.2 199.8 50.5 232 76.8 231.6C103.1 231.2 111.5 219.6 111.5 219.6C111.5 219.6 134.5 229.6 153.3 229.5C172.2 229.3 199.7 184.7 199.7 184.7C199.7 184.7 151.6 194.6 145.6 187.2ZM101.7 184.6C100.4 185.3 99.7 185.9 97.1 184.2C94.6 182.5 90.9 179.2 93.5 178.2C95.3 177.5 97.5 176.9 99.6 178C103.7 180 103 183.8 101.7 184.6ZM119.7 59.2001C118.7 62.4001 116.7 73.4001 111.3 71.2001C107.3 69.6001 109.8 59.6 109.9 56.8C110 54 113.6 47.2001 116.9 47.5001C120.2 47.8001 120.6 56.0001 119.7 59.2001ZM119.6 113.3C117 111.5 114.6 111.5 116.4 105.9C117.4 102.8 123.9 101.6 125.9 103.9C127.8 106.3 122.2 115.2 119.6 113.3Z" fill="#AD1883"/>
<path d="M105.3 0.700008C103 20.1 101.9 39.6 101.7 59.1C101.5 78.6 102.2 98.1 103.4 117.6C104.6 137.1 106.3 156.5 108.2 175.9L111.1 205L112.6 219.6L113 223.2C113.1 224.4 113.2 225.6 113.4 226.8C113.8 229.1 114.5 231.3 116.1 232.3C116.7 232.7 116.8 233.4 116.5 234C116.1 234.6 115.4 234.7 114.8 234.4C113.6 233.6 112.7 232.3 112.1 231.1C111.5 229.8 111.2 228.5 111 227.3C110.8 226 110.7 224.8 110.6 223.6L110.3 220L109 205.4L106.3 176.2C104.6 156.8 103 137.3 101.9 117.8C100.9 98.3 100.3 78.8 100.7 59.2C101.1 39.7 102.3 20.1 104.8 0.799984C104.8 0.699984 105 0.499971 105.1 0.599971C105.2 0.399971 105.3 0.600008 105.3 0.700008Z" fill="#B4D462"/>
<path d="M144.9 14.5998C142.7 22.4998 140.6 30.2998 138.2 38.0998C135.8 45.8998 133.2 53.5999 130.2 61.2999C127.1 68.8999 123.8 76.2999 119.7 83.4999C117.6 87.0999 115.2 90.3998 112.6 93.5998C109.9 96.7998 107.1 99.7998 103.3 102.1C102.7 102.4 102 102.3 101.6 101.7C101.3 101.1 101.4 100.4 102 99.9999C105.3 98.0999 108.2 95.1999 110.8 92.1999C113.4 89.1999 115.8 85.8999 117.9 82.4999C122 75.5999 125.5 68.1999 128.6 60.6999C131.7 53.1999 134.4 45.4998 136.9 37.7998C139.4 30.0998 141.7 22.1999 144 14.3999C144.1 14.1999 144.3 13.9998 144.6 14.0998C144.8 14.1998 145 14.3998 144.9 14.5998Z" fill="#B4D462"/>
<path d="M103.8 143.5C103.7 143 103.9 142.7 104.1 142.4L104.7 141.5L106 139.8C106.9 138.7 107.8 137.6 108.8 136.5C110.7 134.4 112.8 132.4 115 130.5C119.3 126.8 124 123.4 128.9 120.5C131.4 119.1 133.9 117.8 136.5 116.6L144.2 113C149.3 110.6 154.4 108.1 159.2 105.2C168.9 99.5001 177.2 91.6001 183.3 82.2001C189.5 72.8001 193.6 62.1002 195 50.9002C195 50.6002 195.3 50.4001 195.6 50.5001C195.9 50.5001 196.1 50.8001 196 51.1001C194.7 62.4001 190.7 73.4001 184.5 83.0001C178.3 92.6001 169.9 100.8 160 106.6C155.1 109.6 150 112.1 144.9 114.5L137.2 118.2C134.7 119.4 132.1 120.7 129.7 122.1C124.9 124.9 120.3 128.2 116.1 131.9C114 133.8 112 135.7 110.1 137.8C109.2 138.8 108.3 139.9 107.4 141L106.1 142.7L105.5 143.6C105.3 143.9 105.1 144.1 104.6 144.2C104.2 144.1 103.8 143.9 103.8 143.5Z" fill="#B4D462"/>
<path d="M107.7 187.3C107 186.5 107.1 185.8 107.3 185.2C107.5 184.5 107.7 183.9 107.9 183.3C108.4 182 109 180.8 109.7 179.7C111.1 177.4 112.9 175.4 114.8 173.6C116.7 171.8 118.7 170.1 120.9 168.6C123.1 167.1 125.7 166.1 128.1 165.3L129.9 164.7C130.5 164.5 131.2 164.3 131.9 164.2C133.3 163.9 134.6 163.9 135.9 163.9C138.6 164 141.1 164.4 143.7 164.8C146.2 165.2 148.7 165.6 151.1 165.6C152.2 165.6 153.6 165.4 154.8 165.3C156.1 165.2 157.3 165 158.6 164.8C163.6 164.1 168.6 163.2 173.3 161.5C178 159.8 182.4 157.3 186.7 154.6C191 151.9 194.8 148.6 198.8 145.3C200.8 143.7 202.8 142.1 204.9 140.6C207 139.1 209.2 137.8 211.5 136.6C211.7 136.5 212 136.6 212.1 136.8C212.2 137 212.1 137.3 211.9 137.4C209.7 138.7 207.6 140.1 205.5 141.6C203.5 143.1 201.5 144.7 199.6 146.4C195.8 149.8 191.9 153.2 187.6 156.1C185.5 157.6 183.3 158.9 181 160.1C178.7 161.4 176.4 162.5 173.9 163.4C169 165.2 163.9 166.2 158.8 167C157.5 167.2 156.3 167.4 155 167.5C153.7 167.6 152.5 167.9 151.1 167.9C148.4 168 145.8 167.5 143.3 167.1C140.8 166.7 138.3 166.3 135.9 166.3C134.7 166.3 133.5 166.4 132.3 166.6C131.7 166.7 131.2 166.9 130.6 167.1L128.8 167.7C126.4 168.5 124.2 169.4 122.1 170.8C120 172.1 118.2 173.8 116.4 175.5C114.6 177.2 112.9 179.1 111.7 181.1C111.1 182.1 110.5 183.2 110.1 184.3C109.9 184.9 109.7 185.4 109.6 186C109.5 186.6 109.3 187.1 108.4 187.6C108.3 187.6 107.9 187.5 107.7 187.3Z" fill="#B4D462"/>
<path d="M110.1 214.2C109.6 212.4 109.7 210.5 110.1 208.7C110.6 206.9 111.6 205.1 112.9 203.8C113.6 203.1 114.3 202.5 115.1 202C115.9 201.5 116.8 201.1 117.6 200.7C119.3 200 121.2 199.6 123 199.4C126.6 199 130.2 199.3 133.6 199.6C137.1 199.9 140.6 200.2 144 200.7C150.9 201.8 157.9 203.7 164 207.4C165.5 208.3 167 209.4 168.3 210.5C169.7 211.6 170.9 212.9 172.1 214.2C173.3 215.5 174.3 217 175.2 218.5C176.1 220 176.8 221.7 177.4 223.3C177.5 223.5 177.4 223.7 177.1 223.8C176.9 223.9 176.7 223.8 176.6 223.6C175.3 220.4 173.5 217.5 171.1 215.1C168.8 212.6 166 210.6 163.1 208.9C157.2 205.5 150.5 203.8 143.7 202.9C140.3 202.4 136.9 202.1 133.4 201.9C129.9 201.7 126.5 201.4 123.2 201.8C119.9 202.2 116.7 203.2 114.6 205.5C113.5 206.6 112.8 208 112.2 209.4C111.6 210.9 111.2 212.5 110.8 214.2C110.7 214.4 110.5 214.6 110.3 214.5C110.2 214.5 110.1 214.3 110.1 214.2Z" fill="#B4D462"/>
<path d="M102.3 129.4C101.3 124.9 100 120.4 97.4 116.8C96.8 115.9 96 115.1 95.2 114.4C94.4 113.7 93.5 113.1 92.5 112.6C90.5 111.6 88.4 110.9 86.2 110.4C81.7 109.5 77.1 109.4 72.3 108.8C69.9 108.5 67.6 108.1 65.3 107.4C63 106.7 60.8 105.7 58.7 104.5C54.5 102.1 50.8 99.0002 47.7 95.5002C44.5 92.0002 41.8 88.0002 39.5 83.9002C35 75.6002 32.6 66.4002 28.1 58.2002C28 58.0002 28.1 57.7002 28.3 57.5002C28.5 57.4002 28.8 57.5002 29 57.7002C33.7 65.9002 36.3 75.1001 40.9 83.1001C43.2 87.1001 45.9 90.9002 49 94.3002C52.1 97.7002 55.7 100.6 59.7 102.9C61.7 104 63.8 105 66 105.6C68.2 106.3 70.4 106.6 72.7 106.9C77.3 107.4 82 107.5 86.7 108.4C89.1 108.9 91.4 109.6 93.6 110.8C94.7 111.4 95.8 112.1 96.7 112.9C97.6 113.7 98.5 114.7 99.2 115.7C100.7 117.7 101.6 120 102.4 122.3C103.2 124.6 103.7 126.9 104 129.3C104.1 129.8 103.8 130.2 103.3 130.3C102.8 130.2 102.4 129.9 102.3 129.4Z" fill="#B4D462"/>
<path d="M106.5 173.5C105.8 173.1 105.4 172.6 105.1 172C104.8 171.4 104.4 170.9 104.1 170.3C103.4 169.2 102.6 168.1 101.8 167C100.2 164.9 98.3999 162.9 96.3999 161C94.4999 159.1 92.3999 157.4 90.1999 155.9C89.0999 155.2 87.9999 154.5 86.7999 153.9C85.5999 153.3 84.3999 152.9 83.0999 152.5C77.9999 150.9 72.5999 149.7 67.3999 147.9C64.7999 147 62.1999 146 59.6999 144.7C57.1999 143.4 54.8999 141.9 52.6999 140.2C50.4999 138.6 48.2999 136.9 46.1999 135.2L39.7999 130.1C35.4999 126.7 31.2999 123.2 27.1999 119.7C18.8999 112.6 10.6999 105.4 2.7999 97.8998C2.5999 97.6998 2.5999 97.3998 2.7999 97.1998C2.9999 96.9998 3.2999 96.9998 3.4999 97.1998C11.5999 104.5 19.7999 111.6 28.2999 118.5C32.4999 122 36.6999 125.4 40.9999 128.8L47.3999 133.8C49.5999 135.5 51.6999 137.1 53.8999 138.7C56.0999 140.3 58.3999 141.7 60.6999 142.9C63.0999 144.1 65.5999 145.1 68.0999 146C73.1999 147.7 78.4999 148.9 83.7999 150.6C85.0999 151 86.4999 151.5 87.7999 152.1C89.0999 152.7 90.2999 153.5 91.3999 154.2C93.6999 155.8 95.8999 157.5 97.8999 159.5C99.8999 161.4 101.8 163.5 103.5 165.7C104.4 166.8 105.2 167.9 105.9 169.1C106.3 169.7 106.6 170.3 107 170.9C107.4 171.5 107.6 172.2 107.5 173C107.4 173.3 107.1 173.6 106.8 173.5C106.6 173.5 106.6 173.5 106.5 173.5Z" fill="#B4D462"/>
<path d="M108.9 205C106.8 200.7 103.5 197 99.5999 194.1C95.6999 191.2 91.2999 188.9 86.5999 187.6C84.2999 186.9 81.7999 186.5 79.3999 186.2C76.8999 185.9 74.4999 185.7 71.9999 185.6C66.9999 185.3 61.9999 185.3 56.9999 185.1C46.8999 184.7 36.7999 182.8 27.3999 179.3C17.8999 175.8 8.99991 170.9 0.999914 164.8C0.799914 164.7 0.799914 164.4 0.899914 164.3C0.999914 164.1 1.29991 164.1 1.39991 164.2C9.39991 170.2 18.2999 174.9 27.6999 178.2C37.0999 181.5 46.9999 183.3 56.9999 183.5C61.9999 183.7 66.9999 183.6 72.0999 183.8C74.5999 183.9 77.1999 184 79.6999 184.3C82.1999 184.6 84.7999 184.9 87.2999 185.6C92.2999 187 96.9999 189.2 101.1 192.3C105.2 195.3 108.9 199.2 111.3 204C111.6 204.6 111.4 205.3 110.7 205.6C109.9 205.9 109.2 205.7 108.9 205Z" fill="#B4D462"/>
<path d="M109.9 209.7C107 208.5 103.7 208.2 100.5 208.4C97.1999 208.6 93.9999 209.4 90.7999 210.3C87.5999 211.2 84.4999 212.5 81.2999 213.7C78.0999 214.9 74.8999 216 71.5999 217C65.0999 219 58.4999 220.7 51.7999 222.1C45.0999 223.4 38.3999 224.4 31.5999 225.1C31.2999 225.1 31.0999 224.9 31.0999 224.7C31.0999 224.4 31.2999 224.2 31.4999 224.2C38.1999 223.4 44.8999 222.3 51.4999 220.9C58.0999 219.4 64.5999 217.6 70.9999 215.5C74.1999 214.4 77.3999 213.3 80.4999 212C83.5999 210.8 86.7999 209.4 90.0999 208.4C93.3999 207.4 96.7999 206.5 100.3 206.2C103.8 205.9 107.4 206.1 110.9 207.5C111.5 207.8 111.8 208.5 111.6 209.1C111.4 209.7 110.5 210 109.9 209.7Z" fill="#B4D462"/>
</svg>
