<svg width="271" height="300" viewBox="0 0 271 300" fill="none" xmlns="http://www.w3.org/2000/svg">
<path d="M183.8 240.7C177.5 232.2 186.9 233.5 207.6 233.8C228.3 234.1 245.3 224.6 245.3 224.6C245.3 224.6 264.3 196.7 264.6 175C265 153.3 259.1 143.2 259.1 143.2C259.1 143.2 245.2 166.3 227.7 178.4C211.4 189.7 185.4 198.7 176.8 190.3C168.1 181.9 202 179.6 221 160.8C240 142 253.3 124 253.3 124C253.3 124 250 96.8998 240.8 81.0998C231.6 65.2998 224.3 53.9998 224.3 53.9998C224.3 53.9998 216.6 88.7998 211.5 102.5C206.3 116.1 188.5 127.7 178.1 121.2C167.7 114.7 189.4 106.3 196.5 83.3998C204.4 58.0998 202.7 56.2998 204.6 42.9998C206.1 32.4998 181.6 32.2998 168.3 28.5998C155 24.8998 139.5 6.2998 139.5 6.2998C139.5 6.2998 137.2 11.2998 132.5 15.5998C127.8 19.9998 111.7 23.3998 98.7 32.6998C86.9 41.0998 78.9 47.4998 78.9 47.4998C78.9 47.4998 71.8 72.2998 87.2 88.6998C100 102.4 112.2 110.9 111.9 115.4C111.1 128.2 104 129.6 94.7 124.2C87.5 120 73.3 104.7 66.1 94.6998C60 86.1998 57.5 62.4998 57.5 62.4998C57.5 62.4998 45.2 77.8998 42.5 83.2998C39.8 88.7998 35.2 96.9998 35.2 96.9998C35.2 96.9998 44.7 133.6 60.6 143.5C99 167.6 119 159.7 110.8 176C102.6 192.4 82.3 174.9 61.4 160.9C40.5 146.9 19.5 107.3 19.5 107.3C19.5 107.3 16.4 120.1 11.6 125.8C6.79996 131.5 7.29996 136.9 4.09996 144.4C0.899956 151.9 13.7 164.8 27.8 179.5C41.8 194.3 113.2 199.4 102.4 219.7C91.6 240 58.4 218.8 41.5 205.8C24.6 192.8 6.49996 174.4 6.49996 174.4C6.49996 174.4 0.599955 200.1 3.89995 216.7C7.19995 233.3 16.9 238.8 16.9 238.8C16.9 238.8 35.5 245.5 59.2 248.6C80.4 251.4 98.9 247.5 100.9 255.7C105.2 273 37.8 251.1 37.8 251.1C37.8 251.1 60.9 293 94.4 293.8C127.9 294.6 139.2 280.1 139.2 280.1C139.2 280.1 168 294 192 294.7C216 295.4 253.2 239.9 253.2 239.9C253.2 239.9 191 250.4 183.8 240.7ZM128 235.3C126.3 236.2 125.3 236.9 122.2 234.6C119.1 232.3 114.6 227.9 118 226.8C120.3 226 123.2 225.4 125.8 226.8C130.7 229.5 129.6 234.4 128 235.3ZM156.8 76.2998C155.4 80.2998 152.3 94.1998 145.5 91.1998C140.5 88.9998 144.1 76.3998 144.4 72.6998C144.7 68.9998 149.6 60.6998 153.8 61.1998C158 61.6998 158.3 72.2998 156.8 76.2998ZM154.1 145.3C150.9 142.8 147.9 142.8 150.3 135.8C151.7 131.9 160 130.6 162.4 133.7C164.9 136.8 157.4 147.8 154.1 145.3Z" fill="url(#paint0_linear)"/>
<path d="M141.3 1.09979C137.4 25.6998 135.1 50.4998 133.9 75.2998C132.8 100.2 132.7 125 133.3 149.9C133.9 174.8 135.2 199.6 136.7 224.5L139 261.8L140.2 280.4L140.5 285.1C140.6 286.7 140.7 288.2 140.9 289.7C141.2 292.6 142.1 295.4 144.1 296.8C144.8 297.3 145 298.3 144.5 299C144 299.7 143 299.9 142.3 299.4C140.8 298.3 139.7 296.7 139 295C138.3 293.4 138 291.7 137.8 290.1C137.6 288.5 137.5 286.9 137.5 285.4L137.2 280.7L136.2 262.1L134.2 224.8C132.9 199.9 131.9 175 131.4 150.1C131 125.2 131.3 100.3 132.6 75.3998C134 50.4998 136.5 25.6998 140.6 1.09979C140.6 0.899792 140.8 0.799805 141 0.799805C141.2 0.799805 141.3 0.899792 141.3 1.09979Z" fill="#B4D462"/>
<path d="M191.1 20.7998C188 30.6998 184.8 40.5998 181.4 50.4998C178 60.2998 174.3 70.0998 170.1 79.5998C165.8 89.0998 161.2 98.4999 155.6 107.4C152.7 111.8 149.5 116 146 119.9C142.4 123.8 138.7 127.6 133.8 130.3C133 130.7 132.1 130.4 131.7 129.7C131.3 128.9 131.6 128 132.3 127.6H132.4C136.7 125.4 140.5 121.8 144 118.1C147.5 114.4 150.7 110.3 153.5 106.1C159.1 97.4998 163.9 88.1999 168.2 78.8999C172.5 69.4999 176.4 59.8998 179.9 50.0998C183.5 40.3998 186.7 30.4998 190 20.5998C190.1 20.2998 190.4 20.0998 190.7 20.1998C191 20.0998 191.2 20.4998 191.1 20.7998Z" fill="#B4D462"/>
<path d="M132.6 183C132.5 182.4 132.7 182 133 181.6L133.8 180.5L135.5 178.4C136.7 177 137.9 175.6 139.2 174.3C141.8 171.7 144.5 169.3 147.3 167C153 162.4 159.1 158.4 165.5 155C168.7 153.3 172.1 151.8 175.4 150.3L185.4 146C192 143.2 198.6 140.3 204.9 136.8C217.5 130 228.5 120.3 236.7 108.6C245 96.9999 250.7 83.3999 253.1 69.2999C253.2 68.8999 253.5 68.6999 253.8 68.7999C254.1 68.8999 254.4 69.1999 254.3 69.4999C252.1 83.8999 246.5 97.6999 238.1 109.7C229.8 121.6 218.6 131.7 205.8 138.6C199.4 142.1 192.8 145.1 186.2 148L176.3 152.3C173 153.8 169.7 155.2 166.6 156.9C160.3 160.3 154.3 164.3 148.8 168.8C146 171.1 143.4 173.5 140.9 176C139.6 177.3 138.5 178.6 137.3 179.9L135.6 182L134.8 183.1C134.5 183.5 134.2 183.8 133.6 183.9C133.1 183.8 132.6 183.5 132.6 183Z" fill="#B4D462"/>
<path d="M135.6 239C134.8 238 134.9 237.1 135.2 236.3C135.5 235.5 135.7 234.6 136.1 233.8C136.8 232.2 137.6 230.7 138.6 229.3C140.5 226.5 142.9 224 145.4 221.8C147.9 219.6 150.5 217.5 153.4 215.8C156.3 214.1 159.6 212.9 162.7 212L165 211.3C165.8 211.1 166.7 210.8 167.6 210.7C169.3 210.4 171.1 210.4 172.8 210.5C176.2 210.7 179.5 211.4 182.6 212C185.8 212.6 188.9 213.3 192 213.4C193.5 213.4 195.1 213.2 196.7 213.1C198.3 213 199.9 212.8 201.5 212.7C207.9 212.1 214.3 211.2 220.4 209.2C226.5 207.3 232.2 204.3 237.8 201C243.4 197.8 248.5 193.8 253.6 189.7C256.2 187.7 258.8 185.8 261.6 184C264.4 182.2 267.3 180.7 270.2 179.2C270.5 179.1 270.8 179.2 270.9 179.4C271 179.7 270.9 180 270.7 180.1C267.9 181.6 265.1 183.3 262.4 185.1C259.7 186.9 257.2 188.9 254.6 190.9C249.6 195 244.5 199.2 238.9 202.7C236.1 204.5 233.2 206 230.3 207.5C227.4 209 224.3 210.3 221.1 211.3C214.8 213.4 208.2 214.4 201.7 215.2C200.1 215.4 198.4 215.5 196.8 215.7C195.2 215.8 193.6 216 191.8 216C188.3 215.9 185.1 215.2 181.9 214.6C178.7 214 175.6 213.3 172.5 213.2C170.9 213.1 169.4 213.2 167.9 213.4C167.2 213.5 166.4 213.7 165.7 213.9L163.4 214.6C160.3 215.5 157.4 216.6 154.7 218.2C152 219.8 149.6 221.8 147.2 223.9C144.8 226 142.6 228.3 140.9 230.9C140 232.2 139.3 233.5 138.7 234.9C138.4 235.6 138.2 236.3 137.9 237C137.7 237.7 137.5 238.4 136.4 239C136.2 239.4 135.8 239.3 135.6 239Z" fill="#B4D462"/>
<path d="M137.3 273.4C136.8 271.1 136.9 268.7 137.6 266.4C138.3 264.1 139.6 261.9 141.4 260.2C142.3 259.3 143.3 258.6 144.3 258C145.4 257.4 146.5 256.9 147.6 256.5C149.8 255.7 152.2 255.3 154.5 255.2C159.1 254.9 163.6 255.4 168 255.9C172.4 256.4 176.8 257 181.2 257.8C190 259.5 198.7 262.3 206.3 267.3C208.2 268.5 210 269.9 211.7 271.4C213.4 272.9 215 274.5 216.4 276.3C217.8 278.1 219.1 279.9 220.2 281.9C221.2 283.9 222.1 286 222.7 288.2C222.8 288.5 222.6 288.8 222.4 288.8C222.1 288.9 221.9 288.7 221.8 288.5C220.4 284.4 218.1 280.6 215.2 277.3C212.4 274 209 271.3 205.3 269C197.9 264.4 189.4 261.9 180.8 260.4C176.5 259.6 172.1 259.1 167.7 258.6C163.3 258.1 159 257.7 154.7 258C150.5 258.3 146.3 259.5 143.5 262.3C142.1 263.7 141.1 265.4 140.2 267.2C139.3 269 138.8 271.1 138.2 273.2C138.1 273.5 137.8 273.6 137.6 273.6C137.4 273.7 137.3 273.6 137.3 273.4Z" fill="#B4D462"/>
<path d="M131.3 165C130.3 159.2 128.8 153.4 125.7 148.7C124.9 147.5 124.1 146.4 123 145.5C122 144.5 120.9 143.7 119.7 143C117.3 141.6 114.6 140.6 111.8 139.9C106.2 138.5 100.2 138.2 94.2 137.2C91.2 136.7 88.2 136.1 85.3 135C82.4 134 79.7 132.6 77.1 130.9C71.9 127.7 67.3 123.5 63.5 118.9C59.6 114.3 56.3 109.1 53.6 103.7C48.2 92.8001 45.6 81.1001 40.3 70.5001C40.1 70.2001 40.3 69.8 40.6 69.6C40.9 69.4 41.3 69.6001 41.5 69.9001C47.1 80.6001 50 92.4001 55.4 102.9C58.1 108.1 61.3 113.1 65.2 117.6C69 122.1 73.4 126 78.4 129C80.9 130.5 83.5 131.8 86.2 132.8C88.9 133.7 91.8 134.3 94.7 134.8C100.5 135.7 106.5 136 112.5 137.4C115.5 138.1 118.5 139.2 121.2 140.7C122.6 141.5 123.9 142.5 125 143.6C126.2 144.7 127.2 146 128 147.3C129.8 149.9 130.9 152.9 131.8 155.8C132.7 158.7 133.2 161.8 133.6 164.8C133.7 165.4 133.2 166 132.6 166.1C132 166 131.5 165.6 131.3 165Z" fill="#B4D462"/>
<path d="M134.6 221.3C133.7 220.8 133.3 220 132.9 219.3C132.5 218.5 132.1 217.8 131.7 217.1C130.9 215.6 129.9 214.2 128.9 212.8C126.9 210 124.7 207.4 122.3 204.9C119.9 202.4 117.4 200.2 114.7 198.2C113.3 197.2 111.9 196.3 110.5 195.5C109 194.7 107.5 194.1 105.9 193.5C99.4 191.2 92.7 189.4 86.1 186.9C82.8 185.6 79.6 184.2 76.5 182.4C73.4 180.6 70.5 178.6 67.8 176.4C65 174.2 62.4 172 59.7 169.7L51.8 162.9C46.5 158.3 41.3 153.7 36.2 149C26 139.7 15.9 130 6.1 120.2C5.8 119.9 5.8 119.5 6.1 119.3C6.4 119 6.8 119 7 119.3C17 129 27.1 138.5 37.5 147.7C42.7 152.3 47.9 156.9 53.2 161.4L61.2 168.1C63.9 170.3 66.5 172.6 69.3 174.7C72 176.8 74.8 178.8 77.8 180.4C80.7 182.1 83.9 183.4 87.1 184.7C93.5 187.1 100.3 188.9 106.9 191.3C108.5 191.9 110.3 192.5 111.9 193.4C113.5 194.3 115 195.2 116.4 196.3C119.3 198.4 121.9 200.8 124.4 203.3C126.9 205.8 129.2 208.5 131.2 211.4C132.2 212.8 133.2 214.3 134.1 215.9C134.5 216.7 135 217.5 135.4 218.3C135.8 219.1 136.2 220 135.9 221C135.8 221.4 135.4 221.7 134.9 221.6C134.8 221.4 134.7 221.4 134.6 221.3Z" fill="#B4D462"/>
<path d="M136.1 261.7C133.7 256.1 129.6 251.2 124.8 247.3C120 243.4 114.4 240.3 108.5 238.4C105.6 237.4 102.5 236.8 99.3 236.3C96.2 235.8 93 235.4 89.9 235.1C83.6 234.5 77.2 234.3 70.8 233.7C58 232.7 45.2 229.7 33.3 224.8C21.4 219.9 10.2 213.3 0.299963 205C0.099963 204.8 0.0999626 204.5 0.199963 204.3C0.399963 204.1 0.699962 204.1 0.899962 204.2C10.8 212.2 22 218.7 33.8 223.3C45.6 228 58.2 230.7 70.9 231.5C77.3 232 83.7 232.1 90.1 232.6C93.3 232.8 96.5 233.2 99.7 233.6C102.9 234.1 106.1 234.7 109.3 235.7C115.6 237.7 121.4 240.8 126.6 244.9C131.7 249 136.2 254.1 139 260.3C139.4 261.1 139 262 138.2 262.4C137.4 262.8 136.5 262.5 136.1 261.7Z" fill="#B4D462"/>
<path d="M137.2 267.7C133.6 266 129.4 265.5 125.3 265.6C121.1 265.7 116.9 266.5 112.8 267.6C108.7 268.6 104.7 270.1 100.5 271.4C96.4 272.7 92.2 274 88 275.1C79.6 277.4 71.0999 279.2 62.5999 280.6C53.9999 282 45.4 282.9 36.7999 283.4C36.4999 283.4 36.2 283.2 36.2 282.8C36.2 282.5 36.4 282.2 36.7 282.2C45.3 281.5 53.9 280.4 62.3 278.9C70.8 277.3 79.2 275.4 87.4 273C91.5 271.8 95.5999 270.5 99.6999 269.1C103.7 267.7 107.9 266.1 112.1 265C116.3 263.8 120.7 263 125.1 262.7C129.5 262.5 134.2 262.9 138.5 264.8C139.3 265.2 139.6 266.1 139.3 266.9C138.9 267.7 138 268 137.2 267.7Z" fill="#B4D462"/>
<defs>
<linearGradient id="paint0_linear" x1="1.34345" y1="211.969" x2="255.526" y2="118.265" gradientUnits="userSpaceOnUse">
<stop stop-color="#B4D462"/>
<stop offset="0.1057" stop-color="#CDB070"/>
<stop offset="0.2171" stop-color="#E3927D"/>
<stop offset="0.312" stop-color="#F07F84"/>
<stop offset="0.3784" stop-color="#F57887"/>
<stop offset="0.4603" stop-color="#E56286"/>
<stop offset="0.6063" stop-color="#CD4285"/>
<stop offset="0.7469" stop-color="#BB2B84"/>
<stop offset="0.8785" stop-color="#B11D83"/>
<stop offset="0.9919" stop-color="#AD1883"/>
</linearGradient>
</defs>
</svg>
