<svg width="228" height="224" viewBox="0 0 228 224" fill="none" xmlns="http://www.w3.org/2000/svg">
<path d="M204.1 218.3C202 212.5 201.4 211 199.2 205.2C197 199.4 194.8 193.6 192.6 187.8C188.1 176.2 183.4 164.7 178.6 153.1C173.7 141.6 168.7 130.1 163.3 118.6C160.6 112.9 157.8 107.2 154.8 101.5C151.7 95.7998 148.5 90.1997 145.1 84.5997C131.6 62.2997 115.6 40.2998 94.3999 20.6998C91.7999 18.1998 88.8999 15.6997 85.6999 13.5997C82.3999 11.3997 78.7999 9.49978 74.9999 7.89978C67.2999 4.59978 58.7999 2.39978 49.9999 1.39978C41.2999 0.399778 32.3999 0.399766 23.8999 1.69977C15.4999 2.89977 7.4999 5.39975 0.899902 8.99975L1.49991 9.49975C14.8999 2.59975 32.9999 0.599778 49.6999 2.89978C58.0999 3.99978 66.2999 6.29975 73.5999 9.49975C77.1999 11.0998 80.5999 12.9997 83.6999 15.0997C86.7999 17.1997 89.3999 19.4998 91.8999 21.9998C112.3 41.6998 127.9 63.4998 141 85.6998C154.2 108 164.4 130.9 174.3 153.9C179.3 165.4 184.2 176.9 188.9 188.4L201.7 218.7L204.1 218.3Z" fill="#AD1883"/>
<path d="M227.1 223.7C218.7 201.9 210 180.1 201.1 158.3C196.6 147.4 192.1 136.5 187.4 125.7C186.2 123 185 120.3 183.7 117.6C182.4 114.9 181 112.2 179.6 109.5C176.8 104.1 173.7 98.7998 170.4 93.5998C163.7 83.0998 156 72.8999 146.3 63.3999C141.4 58.6999 136.1 54.1998 130 50.0998C123.9 46.0998 117.2 42.3998 109.5 39.7998C94.1998 34.7998 76.7998 33.5998 60.9998 35.9998C53.0998 37.1998 45.4998 39.2998 38.8998 42.4998C32.3998 45.6998 26.9998 49.9998 23.7998 54.9998L24.5998 55.2998C27.8998 50.3998 33.1998 46.1998 39.5998 43.1998C46.0998 40.1998 53.4998 38.0998 61.2998 36.9998C76.8998 34.8998 93.8998 36.1998 108.5 41.0998C115.8 43.5998 122.2 47.2998 128 51.2998C133.8 55.2998 138.9 59.7998 143.6 64.4998C152.9 73.8998 160.2 84.0998 166.5 94.4998C169.6 99.6998 172.5 105 175.2 110.3C177.9 115.6 180.3 121 182.8 126.4C187.8 137.2 192.5 148 197.2 158.8C206.6 180.5 215.7 202.2 224.6 224L227.1 223.7Z" fill="#AD1883"/>
</svg>
