<svg width="227" height="420" viewBox="0 0 227 420" fill="none" xmlns="http://www.w3.org/2000/svg">
<path d="M132.3 391.772C131 382.172 130.8 379.772 129.7 370.172C128.6 360.572 127.4 351.072 126.4 341.472C124.4 322.272 122.5 303.172 120.7 283.972C119.1 264.772 117.6 245.572 116.6 226.272C116.1 216.672 115.7 206.972 115.5 197.272C115.4 187.572 115.5 177.972 115.8 168.272C116.9 129.672 120.8 90.872 131.8 53.672C133.1 49.072 134.7 44.2719 136.9 39.8719C139.1 35.4719 141.8 31.272 144.9 27.472C151.1 19.772 158.9 13.572 167.5 8.97197C176.1 4.37197 185.6 1.37193 195.3 0.37193C205 -0.62807 214.9 0.371943 224.1 3.57194L223.8 4.57194C205.5 -1.22806 185.2 1.97195 168.7 11.272C160.5 15.972 153.1 22.172 147.3 29.472C144.4 33.172 141.9 37.1719 139.9 41.3719C137.8 45.6719 136.5 49.972 135.3 54.672C125.4 91.672 121.6 130.172 120.9 168.472C120.1 206.872 122.8 245.172 126 283.572C127.5 302.772 129.1 321.972 130.9 341.072L135.3 391.472L132.3 391.772Z" fill="#30547B"/>
<path d="M65.8 391.272C64.2 376.872 62.9 362.572 61.6 348.272C60.3 333.972 59.3 319.772 58.2 305.472C57.1 291.272 56.3 277.072 55.6 262.972C55 248.872 54.4 234.772 54.4 220.872C54.4 213.872 54.6 207.072 54.8 200.172C55 193.272 55 186.372 55.1 179.472C55.2 165.672 55.2 151.772 55.9 138.172C56.2 131.372 56.9 124.672 58 118.072C59.1 111.572 60.6 105.172 63 99.2722C65.5 93.4722 68.8 87.9722 73.3 83.4722C75.5 81.1722 78 79.0722 80.7 77.1722C83.4 75.2722 86.5 73.6722 89.4 71.9722L90.3 72.7722C87.6 74.6722 84.8 76.4721 82.4 78.5721C79.9 80.5721 77.7 82.7722 75.7 85.1722C71.8 89.9722 68.8 95.3722 66.6 101.272C62.4 113.072 61.3 126.472 60.7 140.072C60.2 153.672 60.4 167.572 60.4 181.472C60.4 188.372 60.5 195.372 60.4 202.272L60.1 222.872C60.1 250.472 61.9 278.872 63.3 307.072L68.6 392.072L65.8 391.272Z" fill="#30547B"/>
<path d="M121.1 419.972L108.7 332.072L102.5 288.172C100.4 273.572 98.3 258.872 95.9 244.372C93.4 229.872 91 215.272 87.7 200.972C84.4 186.672 80 172.672 73.5 159.572C70.2 153.072 66.4 146.772 61.9 141.272C57.2 135.872 51.3 131.472 45 127.972C38.7 124.372 31.8 121.672 24.8 119.772C21.3 118.872 17.7 118.172 14 117.772C10.4 117.372 6.70001 117.272 3.20001 118.072L3 117.072C6.7 116.072 10.5 116.072 14.2 116.272C17.9 116.472 21.6 117.072 25.3 117.872C32.6 119.572 39.7 122.072 46.4 125.472C53.1 128.972 59.4 133.372 64.5 138.972C69.5 144.772 73.6 151.072 77.2 157.672C80.8 164.272 83.7 171.272 86.1 178.272C88.6 185.372 90.6 192.572 92.4 199.772C95.9 214.272 98.8 228.772 101.1 243.472C103.5 258.072 105.6 272.772 107.6 287.372L110.6 309.372L113.4 331.372C115.2 346.072 117.1 360.772 118.8 375.472C120.5 390.172 122.2 404.872 123.6 419.572L121.1 419.972Z" fill="#30547B"/>
<path d="M108.5 378.372L98.3 321.372L93.1 292.872C91.3 283.372 89.6 273.872 87.5 264.372C85.4 254.872 83.3 245.272 80.4 235.772C77.4 226.272 73.5 216.572 67.5 207.172C64.5 202.472 60.9 197.772 56.6 193.372C52.2 189.072 46.5 185.172 40.5 181.572C34.4 178.072 27.9 174.972 21.1 172.272C17.7 170.972 14.2 169.772 10.7 168.772C7.20001 167.772 3.60001 166.972 0.200012 166.672L0 165.972C3.6 166.172 7.30002 166.872 10.9 167.772C14.5 168.672 18.1 169.872 21.6 171.072C28.6 173.572 35.5 176.672 41.9 180.172C48.3 183.672 54.3 187.772 59.2 192.372C63.9 196.972 67.8 201.772 71.1 206.572C74.4 211.372 77.1 216.372 79.4 221.172C81.6 226.072 83.5 230.972 85.1 235.772C88.2 245.472 90.7 255.072 92.7 264.672C94.7 274.272 96.4 283.772 98.2 293.272L100.7 307.572L103 321.772C104.5 331.272 106 340.772 107.3 350.172C108.6 359.672 110 369.072 111.1 378.572L108.5 378.372Z" fill="#30547B"/>
<path d="M111 407.972C107 371.872 103.3 335.772 99.8001 299.572C98.1001 281.472 96.5001 263.372 95.1001 245.272C94.8001 240.772 94.4001 236.172 94.2001 231.672C94.0001 227.072 93.8001 222.572 93.7001 217.972C93.5001 208.872 93.6001 199.672 94.1001 190.572C95.0001 172.372 97.1001 154.072 101.8 136.372C104.2 127.572 107.2 118.772 111.2 110.572C115.3 102.372 120.2 94.372 126.8 87.872C140 74.972 157.8 67.1721 176 65.1721C185.1 64.1721 194.4 64.872 203.3 67.372C212.1 69.872 220.4 74.5721 226.8 81.1721L226.1 81.872C219.7 75.472 211.6 71.0721 203 68.6721C194.3 66.2721 185.2 65.772 176.3 66.872C158.5 68.972 141.3 76.872 128.7 89.572C122.4 95.872 117.8 103.672 114 111.772C110.2 119.872 107.5 128.472 105.3 137.172C101 154.672 99.3001 172.672 98.8001 190.672C98.6001 199.672 98.6001 208.672 99.0001 217.772C99.3001 226.772 100 235.772 100.4 244.872C101.5 262.972 102.9 281.072 104.3 299.172C107.2 335.372 110.4 371.472 113.8 407.672L111 407.972Z" fill="#30547B"/>
</svg>
