<svg width="108" height="276" viewBox="0 0 108 276" fill="none" xmlns="http://www.w3.org/2000/svg">
<path opacity="0.92" d="M52.2 0.300049C52.2 0.300049 61.8 37.2 63.8 48.8C65.4 58 57.7 67.6001 57.2 71.0001C56.7 74.4001 57.5 86.6001 58.6 95.5001C59.7 104.4 60.8 121.3 62.2 122.9C63.6 124.5 73.5 93.1001 73.8 88.9001C74.1 84.7001 70.7 67.2001 72.6 59.7001C74.5 52.1001 88.3 35.2001 91 30.7001C93.7 26.2001 95.3 17.1001 95.3 17.1001C95.3 17.1001 96.8 51.7 93.1 65.3C89.4 78.9 76.5 87.5001 75.6 92.0001C74.7 96.5001 64.9 123.8 64 127.6C63.1 131.4 64.2 159 65.5 160.3C66.8 161.6 73 141.7 73.3 139.2C73.5 136.6 76.4 120.1 79.5 114.9C82.7 109.7 106.6 102.9 106.6 102.9C106.6 102.9 101.3 111.2 98.4001 119C96.8001 123.3 95.2 132.6 91.1 136C87.1 139.4 76.6 139 75.2 142.4C73.8 145.8 67.7 162.3 66.3 166.2C64.9 170.1 61.6 193.6 62 196.8C62.4 200 77.3 185.5 78.2 183.1C79.1 180.6 80.8 165 81.7 161.9C82.6 158.8 90.3 152.6 96.5 151.1C98.7 150.6 107.4 149.9 107.4 149.9C107.4 149.9 95 166.8 92.7 171.6C90.4 176.4 81.6 186.8 79.2 187.4C76.7 187.9 61.4 202.8 60.5 204.8C59.6 206.8 61.2 225.3 60.7 233.6C60.2 241.9 56.2 269.1 56.2 269.1L51.9 275.3C51.9 275.3 57.6 236.7 57.8 232.7C58.1 228.7 43.9 218.8 39 213.5C34.1 208.2 29.1 198.2 27.8 197.6C26.5 197 16.7 193.2 14.3 189.2C11.9 185.2 9.00002 167.5 7.30002 159.8C5.60002 152.1 0.900024 141.2 0.900024 141.2C0.900024 141.2 13.5 156.2 17.3 159.8C21.1 163.4 23.7 168.8 25.7 171.7C27.7 174.6 28.3 194.9 29.7 196.4C31.3 198 37.6 209.4 40.7 211.7C43.8 214 55.1 224 56.7 223C58.3 222 56.6 212.5 57.8 200C59 187.5 59.7 189.5 58.8 185.9C57.9 182.3 46.7 163.7 44.1 157C41.5 150.3 39.7 149.7 39 149.1C38.3 148.5 31.9 148.6 30.3 146.5C28.8 144.4 19.5 127.8 16 125.8C12.4 123.8 3.60004 117.7 3.60004 117.7C3.60004 117.7 23.8 126.7 33.8 137.5C43.8 148.3 40.5 147.8 41.8 149.6C43.1 151.3 57.7 182.1 59.3 180.7C60.9 179.3 62 172.5 62.1 164.5C62.2 156.5 61.8 149.2 61.1 146.9C60.4 144.6 54.1 130.2 50.8 124.9C47.5 119.6 45.2 115.5 44.3 114.8C43.4 114.1 34.4 112.7 31.6 109.2C28.8 105.7 26 88.7 25.5 86.3C25 83.9 17.6 72.0001 17.6 72.0001C17.6 72.0001 31.2 79.5001 34.2 83.6001C37.2 87.7001 43.6 91.1001 44.5 94.7001C45.4 98.3001 45 111.3 45.5 113.4C46 115.5 50 120.1 51.7 123.2C53.5 126.4 58.2 137.7 59.7 137.6C61.2 137.5 57.7 105.5 56.7 95.1001C55.7 84.7001 55.5 72.5001 55.5 69.9001C55.5 67.3001 46.4 53.4001 44.1 48.4001C41.8 43.4001 44.6 29.3001 45.2 27.2001C45.8 25.1001 52.2 0.300049 52.2 0.300049Z" fill="url(#paint0_linear)"/>
<defs>
<linearGradient id="paint0_linear" x1="2.97433" y1="119.611" x2="107.857" y2="148.456" gradientUnits="userSpaceOnUse">
<stop stop-color="#F57887"/>
<stop offset="1" stop-color="#FEB0AD"/>
</linearGradient>
</defs>
</svg>
