<svg width="161" height="347" viewBox="0 0 161 347" fill="none" xmlns="http://www.w3.org/2000/svg">
<path d="M111.7 0.600098C111.7 0.600098 90.2 44.8001 85 58.9001C80.8 70.1001 90.4 83.9001 90.5 88.3001C90.6 92.7001 87 107.9 83.6 118.8C80.2 129.7 75.4 150.8 72.9 152.4C70.4 154 61.9 112.4 62.2 107.1C62.5 101.8 71 80.6001 69.7 70.6001C68.4 60.7001 51.1 36.2001 47.9 29.9001C44.7 23.6001 44.2 11.8001 44.2 11.8001C44.2 11.8001 35.2 55.0001 38.1 72.9001C41 90.8001 58.4 104.6 59 110.5C59.6 116.4 68.7 152.9 69.4 157.9C70 162.8 63 197.4 60.8 198.7C58.6 200 53.2 173.6 53.3 170.3C53.4 167 52.5 145.5 48.7 138.3C44.9 131.1 10.7 117 10.7 117C10.7 117 17 128.7 19.7 139.2C21.2 145 21.9 157.1 27.2 162.2C32.6 167.4 48.3 169.2 49.6 173.8C50.9 178.4 57 200.5 58.2 205.8C59.5 211.1 59.9 241.3 58.6 245.2C57.3 249.2 38 227.6 37.2 224.2C36.4 220.8 36.8 200.8 36.1 196.7C35.3 192.6 25.2 183.1 16.1 179.7C12.9 178.5 0 175.7 0 175.7C0 175.7 15.2 199.8 17.7 206.4C20.1 213 31.2 228.1 34.8 229.3C38.4 230.5 58.3 252.7 59.2 255.4C60.2 258.2 54.1 281.1 53.3 291.6C52.5 302.1 53.2 337.3 53.2 337.3L58.4 346.1C58.4 346.1 57.4 296.2 57.8 291.2C58.2 286.1 81.3 276.9 89.5 271.4C97.8 265.9 107.2 254.4 109.3 254C111.4 253.6 126.7 251 131.1 246.5C135.5 242 143.2 220.4 147.2 211.1C151.2 201.8 160.4 189.2 160.4 189.2C160.4 189.2 138.7 205.2 132.4 208.8C126.1 212.4 121.1 218.7 117.6 221.8C114.1 225 109.2 250.4 106.8 252C104.1 253.7 92.5 266.5 87.4 268.7C82.3 270.9 63.5 280.9 61.4 279.2C59.3 277.5 63.6 266 64.3 250C64.9 234 63.5 236.4 65.5 232.1C67.5 227.8 87.8 207 93 199.1C98.2 191.2 101 190.9 102.1 190.3C103.2 189.7 112.8 191.3 115.5 189C118.2 186.7 135.2 168 140.9 166.2C146.6 164.5 161 158.8 161 158.8C161 158.8 129.1 165.5 112.2 176.8C95.3 188.1 100.2 188.3 97.9 190.1C95.6 192 67.9 227.3 65.8 225.2C63.7 223.1 63.3 214.2 64.8 204.2C66.2 194.2 68.2 185.1 69.7 182.3C71.1 179.5 83.4 162.9 89.4 157C95.4 151.1 99.6 146.5 101.1 145.8C102.6 145.1 116.3 145.4 121.1 141.7C125.9 138 133.4 117.2 134.7 114.3C136 111.4 149.3 98.2001 149.3 98.2001C149.3 98.2001 127.5 104.5 122.3 109C117.1 113.5 106.9 116.3 104.8 120.7C102.7 125.1 100.9 141.5 99.7 144C98.5 146.5 91.8 151.4 88.5 155C85.3 158.6 76 171.8 73.7 171.3C71.4 170.8 82.9 131.4 86.4 118.6C89.9 105.8 92.6 90.5001 93.1 87.2001C93.6 83.9001 109.8 68.5001 114.3 62.8001C118.7 57.1001 117.3 38.7001 116.7 35.8001C116.2 33.3001 111.7 0.600098 111.7 0.600098Z" fill="#30547B"/>
</svg>
