<svg width="158" height="130" viewBox="0 0 158 130" fill="none" xmlns="http://www.w3.org/2000/svg">
<path d="M156.3 130C156.5 130 156.6 129.9 156.8 129.9C157.4 129.6 157.8 129.1 157.6 128.5C153.9 110.2 140.3 64.1 92.4 31.4C59.9 9.20005 25.4 2.20005 2.20001 0.300049C1.70001 0.300049 1.19999 0.400049 0.89999 0.800049C0.59999 1.10005 0.500002 1.60005 0.600002 2.00005C12.6 36.2 31.3 61.2 56.3 76.3L60.5 78.9C76.3 88.5 102.7 104.7 131.8 114.1C145.2 118.5 148.6 122.4 153.3 127.7L154.9 129.5C155.3 129.8 155.8 130 156.3 130ZM4.1 3.00005C26.9 5.20005 59.6 12.3 90.6 33.4C133.6 62.8 148.5 103.1 153.5 123.6C149.5 119.2 144.9 115.5 133 111.7C104.2 102.3 78 86.3 62.3 76.7L58 74.1001C34 59.6001 15.9 35.7 4.1 3.00005Z" fill="#FEB0AD"/>
<path d="M156.3 130C156.4 130 156.6 130 156.7 129.9C157.4 129.6 157.8 128.9 157.5 128.2C148.3 107.3 121.9 74.0001 89.3 50.9001C57.4 28.4001 28.3 11.4001 2.70004 0.300065C2.00004 6.47679e-05 1.10004 0.300063 0.70004 0.900063C0.30004 1.50006 0.600015 2.30006 1.30002 2.60006C26.7 13.5001 55.6001 30.5001 87.4001 52.9001C119.7 75.7001 145.7 108.5 154.7 129.1C155 129.7 155.6 130 156.3 130Z" fill="#FEB0AD"/>
<path d="M135.9 95.1C137.9 101.5 139.5 107.9 140.8 114.5C141.1 116.1 138.2 116.4 137.9 114.8C136.7 108.5 135.1 102.3 133.2 96.1C132.7 94.5 135.4 93.5 135.9 95.1Z" fill="#FEB0AD"/>
<path d="M126.1 83.9001C128.9 92.8001 130.4 101.9 130.4 111.2C130.4 112.9 127.5 113.1 127.5 111.5C127.5 102.4 126.2 93.6001 123.4 84.9001C122.9 83.3001 125.6 82.3001 126.1 83.9001Z" fill="#FEB0AD"/>
<path d="M111.4 69.8C112.7 82.2 115 94.4 118.6 106.5C119.1 108.1 116.3 109.1 115.9 107.5C112.3 95.2 109.8 82.8 108.6 70.1C108.3 68.5 111.2 68.2 111.4 69.8Z" fill="#FEB0AD"/>
<path d="M102.1 61.9001C102.1 75.8001 104.4 89.3001 109 102.4C109.6 104 106.8 104.9 106.3 103.4C101.6 90.0001 99.2001 76.3001 99.2001 62.2001C99.2001 60.6001 102.1 60.3001 102.1 61.9001Z" fill="#FEB0AD"/>
<path d="M88.2001 51.3001C86.0001 66.3001 88.1001 81.1001 94.4001 95.0001C95.1001 96.5001 92.4001 97.5001 91.7001 96.0001C85.3001 81.6001 83.2001 66.4001 85.4001 50.9001C85.5001 49.2001 88.4001 49.6001 88.2001 51.3001Z" fill="#FEB0AD"/>
<path d="M81.3001 45.8C77.6001 60.1 78.0001 74.4 82.4001 88.4C82.9001 90 80.2001 90.9 79.7001 89.4C75.1001 75 74.7001 60.2 78.5001 45.4C78.8001 43.7 81.7001 44.2 81.3001 45.8Z" fill="#FEB0AD"/>
<path d="M65.8 36.8C64.5 52.4 66.8001 67.7 72.7001 82.4C73.3001 84 70.6001 84.9 70.0001 83.4C64.0001 68.3 61.7001 52.6 63.0001 36.5C63.1001 34.7 66 35.1 65.8 36.8Z" fill="#FEB0AD"/>
<path d="M53.1 27.4C48.4 41.6 48.4 56.1 53.2 70C53.7 71.6 51 72.5 50.5 71C45.5 56.6 45.4 41.7 50.2 27C50.8 25.4 53.7 25.8 53.1 27.4Z" fill="#FEB0AD"/>
<path d="M42.3001 22.0001C40.6001 36.7001 41.0001 51.4001 46.2001 65.4001C46.8001 67.0001 44.1001 67.9001 43.5001 66.4001C38.1001 51.9001 37.7001 36.8001 39.5001 21.6001C39.6001 20.0001 42.5001 20.4001 42.3001 22.0001Z" fill="#FEB0AD"/>
<path d="M24.3 12C22.7 24.4 26.2 36.2 29.9 48C30.4 49.6 27.7001 50.5 27.2001 49C23.3001 36.8 19.8 24.5 21.5 11.6C21.7 9.89997 24.5 10.4 24.3 12Z" fill="#FEB0AD"/>
<path d="M136.9 95.9001C142.1 98.7001 146.7 102 150.7 106C151.9 107.2 149.5 108.7 148.3 107.5C144.6 103.9 140.3 100.8 135.6 98.2001C134.1 97.4001 135.3 95.0001 136.9 95.9001Z" fill="#FEB0AD"/>
<path d="M124.6 81.2C131.8 84.4 138.6 88.2 145.1 92.4C146.6 93.4 144.7 95.4 143.2 94.4C136.9 90.3 130.3 86.6 123.3 83.5C121.6 82.9 122.9 80.5 124.6 81.2Z" fill="#FEB0AD"/>
<path d="M105.7 63.8C118 68.6 129.6 73.8 139.6 81.9C141 83 139.1 85 137.7 83.9C127.9 76 116.5 70.9 104.4 66.2C102.8 65.5 104 63.2 105.7 63.8Z" fill="#FEB0AD"/>
<path d="M92.5 53.3C106.9 58.6 121 63.6 133.5 72C135 73 133.1 75 131.6 74C119.3 65.8 105.4 60.9 91.2 55.7C89.5 55 90.8 52.7 92.5 53.3Z" fill="#FEB0AD"/>
<path d="M84.3 46.8999C95.7 48.7999 107 50.9999 118.2 53.4999C120 53.8999 119.5 56.4999 117.7 56.0999C106.5 53.5999 95.2 51.3999 83.8 49.4999C82 49.0999 82.5 46.5999 84.3 46.8999Z" fill="#FEB0AD"/>
<path d="M69.7 37.9001C81.1 37.0001 92.3 37.5001 103.4 39.5001C105.2 39.8001 104.7 42.4001 102.9 42.1001C92 40.2001 81.1 39.6001 70 40.5001C68.1 40.6001 67.8 38.0001 69.7 37.9001Z" fill="#FEB0AD"/>
<path d="M58.2 30.1999C69.7 31.1999 81.1 28.0999 92.3 31.2999C94.1 31.7999 92.8 34.1999 91 33.6999C80.2 30.5999 68.7 33.6999 57.6 32.7999C55.8 32.5999 56.3 29.9999 58.2 30.1999Z" fill="#FEB0AD"/>
<path d="M45.5 23.1C56.6 20.6 67.6 20.7 78.5 23.4C80.3 23.9 79.8 26.4 78 26C67.7 23.3 57.1 23.1 46.5 25.5C44.7 25.9 43.7 23.5 45.5 23.1Z" fill="#FEB0AD"/>
<path d="M30.9 14.3001C41.7 12.6001 52.3001 12.9001 62.9001 15.4001C64.7001 15.8001 64.2001 18.4001 62.4001 18.0001C52.1001 15.6001 41.8001 15.3001 31.2001 17.0001C29.3001 17.1001 29 14.6001 30.9 14.3001Z" fill="#FEB0AD"/>
<path d="M44.5 11.3001C35.5 9.10005 26.3 8.20005 16.9 8.50005C15 8.60005 14.8 6.00005 16.7 5.90005C26.4 5.60005 35.8 6.50005 45.1 8.70005C46.8 9.10005 46.3 11.7001 44.5 11.3001Z" fill="#FEB0AD"/>
</svg>
